<?xml version="1.0" encoding="UTF-8"?>
<svg id="Layer_2" data-name="Layer 2" xmlns="http://www.w3.org/2000/svg" viewBox="0 0 236.5 220.26">
  <defs>
    <style>
      .cls-1 {
        fill: #000;
        stroke: #000;
        stroke-miterlimit: 10;
      }

      .cls-2 {
        fill: #fff;
        font-family: Bahnschrift, Bahnschrift;
        font-size: 71.2px;
        font-variation-settings: 'wght' 400, 'wdth' 100;
      }
    </style>
  </defs>
  <g id="Layer_1-2" data-name="Layer 1">
    <g>
      <rect class="cls-1" x="60.73" y="55.31" width="105.57" height="105.57" rx="12" ry="12"/>
      <rect class="cls-1" x="41.01" y="78.07" width="19.72" height="4.99"/>
      <polygon class="cls-1" points="60.73 106.94 18.09 107.42 18.09 109.52 60.73 109.52 60.73 106.94"/>
      <rect class="cls-1" x="41.01" y="134.52" width="19.72" height="2.32"/>
      <rect class="cls-1" x="83.29" y="160.88" width="4.38" height="20.3"/>
      <polygon class="cls-1" points="111.13 160.88 111.13 203.61 115.54 203.52 115.54 160.88 111.13 160.88"/>
      <rect class="cls-1" x="138.46" y="160.88" width="4.64" height="18.5"/>
      <rect class="cls-1" x="166.3" y="133.23" width="23.98" height="3.61"/>
      <rect class="cls-1" x="166.3" y="105.65" width="43.31" height="3.87"/>
      <rect class="cls-1" x="166.3" y="78.07" width="53.36" height="4.99"/>
      <rect class="cls-1" x="138.71" y="26.76" width="4.38" height="28.55"/>
      <rect class="cls-1" x="111.39" y="41.04" width="3.61" height="14.28"/>
      <polygon class="cls-1" points="83.54 55.31 83.06 16.74 87.93 16.74 87.93 55.31 83.54 55.31"/>
      <circle class="cls-1" cx="33.66" cy="81.03" r="8.8"/>
      <circle class="cls-1" cx="85.09" cy="9.3" r="8.8"/>
      <circle class="cls-1" cx="113.51" cy="32.31" r="8.8"/>
      <circle class="cls-1" cx="140.58" cy="18.77" r="8.8"/>
      <circle class="cls-1" cx="227.2" cy="81.03" r="8.8"/>
      <circle class="cls-1" cx="217.73" cy="108.1" r="8.8"/>
      <circle class="cls-1" cx="198.78" cy="135.17" r="8.8"/>
      <circle class="cls-1" cx="140.58" cy="187.95" r="8.8"/>
      <circle class="cls-1" cx="113.51" cy="210.96" r="8.8"/>
      <circle class="cls-1" cx="85.09" cy="187.95" r="8.8"/>
      <circle class="cls-1" cx="33.66" cy="135.17" r="8.8"/>
      <circle class="cls-1" cx="9.3" cy="108.1" r="8.8"/>
      <text class="cls-2" transform="translate(82.64 133.5)"><tspan x="0" y="0">AI</tspan></text>
    </g>
  </g>
</svg>