<?xml version="1.0" encoding="UTF-8"?>
<svg id="Layer_2" data-name="Layer 2" xmlns="http://www.w3.org/2000/svg" viewBox="0 0 205.77 200">
  <defs>
    <style>
      .cls-1 {
        fill: gray;
      }

      .cls-1, .cls-2, .cls-3, .cls-4, .cls-5, .cls-6, .cls-7, .cls-8 {
        stroke: #000;
        stroke-miterlimit: 10;
      }

      .cls-1, .cls-2, .cls-4, .cls-6, .cls-7 {
        stroke-width: .25px;
      }

      .cls-9 {
        fill: #000;
        stroke-width: 0px;
      }

      .cls-2 {
        fill: #ff931e;
      }

      .cls-3 {
        fill: none;
      }

      .cls-4 {
        fill: #c7b299;
      }

      .cls-5 {
        fill: #f2f2f2;
      }

      .cls-6 {
        fill: #ff7bac;
      }

      .cls-7 {
        fill: #1a1a1a;
      }

      .cls-8 {
        fill: #ff1d25;
      }
    </style>
  </defs>
  <g id="Layer_1-2" data-name="Layer 1">
    <g>
      <g>
        <polygon class="cls-8" points="12.79 .5 155.17 1.5 161.17 3.5 164.17 8.5 164.17 192.5 162.17 197.5 155.17 199.5 13.56 199.5 7.17 196.5 5.17 192.5 5.17 6.88 8.17 2.5 12.79 .5"/>
        <polygon class="cls-5" points="155.17 1.5 14.95 1.5 11.02 4.09 10.38 8.02 10.25 194.95 12.41 197.87 15.97 199.5 155.17 199.5 162.17 197.5 164.17 192.5 164.17 8.5 161.17 3.5 155.17 1.5"/>
        <line class="cls-3" x1="28.29" y1="31.39" x2="141.81" y2="31.39"/>
        <line class="cls-3" x1="28.29" y1="45.99" x2="141.81" y2="45.99"/>
        <line class="cls-3" x1="28.29" y1="60.34" x2="141.81" y2="60.34"/>
        <line class="cls-3" x1="28.29" y1="133.7" x2="141.81" y2="133.7"/>
        <line class="cls-3" x1="28.29" y1="119.06" x2="141.81" y2="119.06"/>
        <line class="cls-3" x1="27.91" y1="104.43" x2="141.44" y2="104.43"/>
        <line class="cls-3" x1="28.29" y1="89.8" x2="141.81" y2="89.8"/>
        <line class="cls-3" x1="28.29" y1="74.95" x2="141.81" y2="74.95"/>
        <line class="cls-3" x1="28.29" y1="178.95" x2="141.81" y2="178.95"/>
        <line class="cls-3" x1="28.29" y1="163.96" x2="141.81" y2="163.96"/>
        <line class="cls-3" x1="28.29" y1="149.23" x2="141.81" y2="149.23"/>
        <g>
          <polygon class="cls-9" points="1.31 18.31 19 18.31 19.55 18.02 20.05 18.31 20.05 21 19.67 21 18.6 19.81 1.58 19.81 1.88 20.24 5.08 20.33 5.31 20.74 4.79 21.19 2.88 21.19 1.62 21 .69 20.45 .46 19.81 .6 18.95 .93 18.64 1.31 18.31"/>
          <polygon class="cls-9" points="1.31 9.29 19 9.29 19.55 9 20.05 9.29 20.05 11.98 19.67 11.98 18.6 10.79 1.58 10.79 1.88 11.22 5.08 11.31 5.31 11.72 4.79 12.17 2.88 12.17 1.62 11.98 .69 11.43 .46 10.79 .6 9.93 .93 9.62 1.31 9.29"/>
        </g>
        <g>
          <polygon class="cls-9" points="1.33 35.96 19.02 35.96 19.57 35.68 20.07 35.96 20.07 38.65 19.69 38.65 18.62 37.46 1.6 37.46 1.9 37.89 5.1 37.98 5.33 38.39 4.81 38.84 2.9 38.84 1.64 38.65 .71 38.1 .48 37.46 .62 36.6 .95 36.29 1.33 35.96"/>
          <polygon class="cls-9" points="1.33 26.94 19.02 26.94 19.57 26.65 20.07 26.94 20.07 29.63 19.69 29.63 18.62 28.44 1.6 28.44 1.9 28.87 5.1 28.96 5.33 29.37 4.81 29.82 2.9 29.82 1.64 29.63 .71 29.08 .48 28.44 .62 27.58 .95 27.27 1.33 26.94"/>
        </g>
        <g>
          <polygon class="cls-9" points="1.31 71.26 19 71.26 19.55 70.98 20.05 71.26 20.05 73.95 19.67 73.95 18.6 72.76 1.58 72.76 1.88 73.19 5.08 73.29 5.31 73.69 4.79 74.14 2.88 74.14 1.62 73.95 .69 73.41 .46 72.76 .6 71.91 .93 71.6 1.31 71.26"/>
          <polygon class="cls-9" points="1.31 62.24 19 62.24 19.55 61.95 20.05 62.24 20.05 64.93 19.67 64.93 18.6 63.74 1.58 63.74 1.88 64.17 5.08 64.26 5.31 64.67 4.79 65.12 2.88 65.12 1.62 64.93 .69 64.38 .46 63.74 .6 62.88 .93 62.57 1.31 62.24"/>
        </g>
        <g>
          <polygon class="cls-9" points="1.31 53.61 19 53.61 19.55 53.33 20.05 53.61 20.05 56.3 19.67 56.3 18.6 55.11 1.58 55.11 1.88 55.54 5.08 55.64 5.31 56.04 4.79 56.49 2.88 56.49 1.62 56.3 .69 55.75 .46 55.11 .6 54.25 .93 53.95 1.31 53.61"/>
          <polygon class="cls-9" points="1.31 44.59 19 44.59 19.55 44.3 20.05 44.59 20.05 47.28 19.67 47.28 18.6 46.09 1.58 46.09 1.88 46.52 5.08 46.61 5.31 47.02 4.79 47.47 2.88 47.47 1.62 47.28 .69 46.73 .46 46.09 .6 45.23 .93 44.92 1.31 44.59"/>
        </g>
        <g>
          <polygon class="cls-9" points="1.54 159.13 19.23 159.13 19.78 158.85 20.28 159.13 20.28 161.82 19.9 161.82 18.83 160.63 1.8 160.63 2.11 161.06 5.3 161.16 5.54 161.56 5.02 162.01 3.11 162.01 1.85 161.82 .92 161.27 .68 160.63 .83 159.77 1.16 159.47 1.54 159.13"/>
          <polygon class="cls-9" points="1.54 150.11 19.23 150.11 19.78 149.82 20.28 150.11 20.28 152.8 19.9 152.8 18.83 151.61 1.8 151.61 2.11 152.04 5.3 152.13 5.54 152.54 5.02 152.99 3.11 152.99 1.85 152.8 .92 152.25 .68 151.61 .83 150.75 1.16 150.44 1.54 150.11"/>
        </g>
        <g>
          <polygon class="cls-9" points="1.33 141.27 19.02 141.27 19.57 140.99 20.07 141.27 20.07 143.97 19.69 143.97 18.62 142.77 1.6 142.77 1.9 143.2 5.1 143.3 5.33 143.7 4.81 144.16 2.9 144.16 1.64 143.97 .71 143.42 .48 142.77 .62 141.92 .95 141.61 1.33 141.27"/>
          <polygon class="cls-9" points="1.33 132.25 19.02 132.25 19.57 131.97 20.07 132.25 20.07 134.94 19.69 134.94 18.62 133.75 1.6 133.75 1.9 134.18 5.1 134.27 5.33 134.68 4.81 135.13 2.9 135.13 1.64 134.94 .71 134.39 .48 133.75 .62 132.89 .95 132.58 1.33 132.25"/>
        </g>
        <g>
          <polygon class="cls-9" points=".86 124.77 18.55 124.77 19.1 124.48 19.6 124.77 19.6 127.46 19.21 127.46 18.14 126.27 1.12 126.27 1.43 126.7 4.62 126.79 4.86 127.2 4.33 127.65 2.43 127.65 1.17 127.46 .24 126.91 0 126.27 .14 125.41 .48 125.1 .86 124.77"/>
          <polygon class="cls-9" points=".86 115.74 18.55 115.74 19.1 115.46 19.6 115.74 19.6 118.43 19.21 118.43 18.14 117.24 1.12 117.24 1.43 117.67 4.62 117.77 4.86 118.17 4.33 118.62 2.43 118.62 1.17 118.43 .24 117.89 0 117.24 .14 116.39 .48 116.08 .86 115.74"/>
        </g>
        <g>
          <polygon class="cls-9" points="1.31 107.21 19 107.21 19.55 106.92 20.05 107.21 20.05 109.9 19.67 109.9 18.6 108.71 1.58 108.71 1.88 109.14 5.08 109.23 5.31 109.64 4.79 110.09 2.88 110.09 1.62 109.9 .69 109.35 .46 108.71 .6 107.85 .93 107.54 1.31 107.21"/>
          <polygon class="cls-9" points="1.31 98.19 19 98.19 19.55 97.9 20.05 98.19 20.05 100.88 19.67 100.88 18.6 99.69 1.58 99.69 1.88 100.11 5.08 100.21 5.31 100.61 4.79 101.07 2.88 101.07 1.62 100.88 .69 100.33 .46 99.69 .6 98.83 .93 98.52 1.31 98.19"/>
        </g>
        <g>
          <polygon class="cls-9" points="1.33 89.65 19.02 89.65 19.57 89.37 20.07 89.65 20.07 92.34 19.69 92.34 18.62 91.15 1.6 91.15 1.9 91.58 5.1 91.68 5.33 92.08 4.81 92.53 2.9 92.53 1.64 92.34 .71 91.79 .48 91.15 .62 90.29 .95 89.98 1.33 89.65"/>
          <polygon class="cls-9" points="1.33 80.63 19.02 80.63 19.57 80.34 20.07 80.63 20.07 83.32 19.69 83.32 18.62 82.13 1.6 82.13 1.9 82.56 5.1 82.65 5.33 83.06 4.81 83.51 2.9 83.51 1.64 83.32 .71 82.77 .48 82.13 .62 81.27 .95 80.96 1.33 80.63"/>
        </g>
        <g>
          <polygon class="cls-9" points="1.19 178.03 18.88 178.03 19.42 177.75 19.92 178.03 19.92 180.72 19.54 180.72 18.47 179.53 1.45 179.53 1.76 179.96 4.95 180.06 5.19 180.46 4.66 180.91 2.76 180.91 1.5 180.72 .57 180.18 .33 179.53 .47 178.68 .81 178.37 1.19 178.03"/>
          <polygon class="cls-9" points="1.19 169.01 18.88 169.01 19.42 168.72 19.92 169.01 19.92 171.7 19.54 171.7 18.47 170.51 1.45 170.51 1.76 170.94 4.95 171.03 5.19 171.44 4.66 171.89 2.76 171.89 1.5 171.7 .57 171.15 .33 170.51 .47 169.65 .81 169.34 1.19 169.01"/>
        </g>
        <polygon class="cls-9" points="1.33 188.82 19.02 188.82 19.57 188.53 20.07 188.82 20.07 191.51 19.69 191.51 18.62 190.32 1.59 190.32 1.9 190.75 5.09 190.84 5.33 191.25 4.81 191.7 2.9 191.7 1.64 191.51 .71 190.96 .47 190.32 .62 189.46 .95 189.15 1.33 188.82"/>
      </g>
      <g>
        <polygon class="cls-4" points="110.71 66.36 134.4 61.15 137.51 66.13 133.14 69.38 136.29 74.42 131.99 78.7 110.71 66.36"/>
        <polygon class="cls-7" points="110.71 66.36 120.64 64.18 119.22 68.01 119.16 71.26 110.71 66.36"/>
        <polygon class="cls-2" points="134.4 61.15 189.31 69.17 188.7 74.05 137.51 66.13 134.4 61.15"/>
        <polygon class="cls-2" points="137.51 66.13 133.14 69.38 136.29 74.42 187.64 82.03 188.7 74.05 137.51 66.13"/>
        <polygon class="cls-2" points="136.29 74.42 131.99 78.7 186.8 86.99 187.64 82.03 136.29 74.42"/>
        <polygon class="cls-1" points="189.31 69.17 188.7 74.05 187.64 82.03 186.8 86.99 193.78 87.91 196.28 70.2 189.31 69.17"/>
        <polygon class="cls-6" points="196.28 70.2 202.94 71.35 204.85 72.98 205.64 75.25 204.22 85.66 202.94 87.5 200.61 88.74 193.78 87.91 196.28 70.2"/>
      </g>
    </g>
  </g>
</svg>