<?xml version="1.0" encoding="UTF-8"?>
<svg id="Layer_2" data-name="Layer 2" xmlns="http://www.w3.org/2000/svg" viewBox="0 0 2986.33 482.87">
  <defs>
    <style>
      .cls-1 {
        fill: #152a1d;
      }

      .cls-1, .cls-2, .cls-3, .cls-4, .cls-5, .cls-6, .cls-7, .cls-8, .cls-9, .cls-10, .cls-11, .cls-12, .cls-13, .cls-14, .cls-15, .cls-16, .cls-17, .cls-18, .cls-19, .cls-20, .cls-21 {
        stroke-width: 0px;
      }

      .cls-2, .cls-22 {
        fill: #000;
      }

      .cls-3 {
        fill: #b4b4b2;
      }

      .cls-4 {
        fill: #edd678;
      }

      .cls-5 {
        fill: #407b82;
      }

      .cls-6 {
        fill: #10282c;
      }

      .cls-7 {
        fill: #c56972;
      }

      .cls-8 {
        fill: #e48905;
      }

      .cls-9 {
        fill: #154b58;
      }

      .cls-23 {
        letter-spacing: -.02em;
      }

      .cls-10 {
        fill: #93525f;
      }

      .cls-11 {
        fill: #23606d;
      }

      .cls-24 {
        letter-spacing: 0em;
      }

      .cls-12 {
        fill: #483948;
      }

      .cls-25, .cls-26 {
        stroke: #000;
        stroke-miterlimit: 10;
      }

      .cls-25, .cls-15 {
        fill: #333;
      }

      .cls-26 {
        fill: gray;
      }

      .cls-22 {
        font-family: GillSansMT-BoldItalic, 'Gill Sans MT';
        font-size: 185px;
        font-style: italic;
        font-weight: 700;
      }

      .cls-13 {
        fill: #eec32a;
      }

      .cls-27 {
        letter-spacing: -.15em;
      }

      .cls-14 {
        fill: #0c333f;
      }

      .cls-16 {
        fill: #a75c69;
      }

      .cls-28 {
        letter-spacing: -.12em;
      }

      .cls-17 {
        fill: #e89908;
      }

      .cls-18 {
        fill: #29abe2;
      }

      .cls-19 {
        fill: #0a0a0a;
      }

      .cls-20 {
        fill: #ebac12;
      }

      .cls-21 {
        fill: #4d4d4d;
      }
    </style>
  </defs>
  <g id="Layer_1-2" data-name="Layer 1">
    <polygon class="cls-26" points="3 332.33 163.1 475.76 459.05 360.19 296.38 225.1 268.56 234.83 249.4 241.83 55 313.33 35.84 320.33 3 332.33"/>
    <polygon class="cls-2" points="3 103.33 3 332.33 0 330.33 0 101.95 302.33 0 304.57 1.48 3 103.33"/>
    <polygon class="cls-21" points="296.38 225.1 3 332.33 3 103.33 304.57 1.48 296.38 225.1"/>
    <polygon class="cls-18" points="281.9 206.05 288.76 22.81 21.33 116.9 21.33 300.14 281.9 206.05"/>
    <polygon class="cls-15" points="180.67 304.9 186.76 310.33 197.9 305.95 192.19 300.52 180.67 304.9"/>
    <polygon class="cls-15" points="210.76 312.67 216.86 318.1 228 313.71 222.29 308.29 210.76 312.67"/>
    <polygon class="cls-15" points="253.62 297.24 259.71 302.67 270.86 298.29 265.14 292.86 253.62 297.24"/>
    <polygon class="cls-15" points="239.43 302.57 245.52 308 256.67 303.62 250.95 298.19 239.43 302.57"/>
    <polygon class="cls-15" points="224.95 307.48 231.05 312.9 242.19 308.52 236.48 303.1 224.95 307.48"/>
    <polygon class="cls-15" points="188.86 311.67 194.95 317.1 206.1 312.71 200.38 307.29 188.86 311.67"/>
    <polygon class="cls-15" points="202.95 305.9 209.05 311.33 220.19 306.95 214.48 301.52 202.95 305.9"/>
    <polygon class="cls-15" points="217.14 301 223.24 306.43 234.38 302.05 228.67 296.62 217.14 301"/>
    <polygon class="cls-15" points="231.67 295.71 237.76 301.14 248.9 296.76 243.19 291.33 231.67 295.71"/>
    <polygon class="cls-15" points="245.81 290.81 251.9 296.24 263.05 291.86 257.33 286.43 245.81 290.81"/>
    <polygon class="cls-15" points="152.29 315.29 158.38 320.71 169.52 316.33 163.81 310.9 152.29 315.29"/>
    <polygon class="cls-15" points="166.67 309.81 172.76 315.24 183.9 310.86 178.19 305.43 166.67 309.81"/>
    <polygon class="cls-15" points="237.62 283.95 243.71 289.38 254.86 285 249.14 279.57 237.62 283.95"/>
    <polygon class="cls-15" points="223.05 289.33 229.14 294.76 240.29 290.38 234.57 284.95 223.05 289.33"/>
    <polygon class="cls-15" points="209.24 294.24 215.33 299.67 226.48 295.29 220.76 289.86 209.24 294.24"/>
    <polygon class="cls-15" points="194.95 299.62 201.05 305.05 212.19 300.67 206.48 295.24 194.95 299.62"/>
    <polygon class="cls-15" points="174.19 316.57 180.29 322 191.43 317.62 185.71 312.19 174.19 316.57"/>
    <polygon class="cls-15" points="138.29 320.19 144.38 325.62 155.52 321.24 149.81 315.81 138.29 320.19"/>
    <polygon class="cls-15" points="52.48 351.48 58.57 356.9 69.71 352.52 64 347.1 52.48 351.48"/>
    <polygon class="cls-15" points="66.95 346.57 73.05 352 84.19 347.62 78.48 342.19 66.95 346.57"/>
    <polygon class="cls-15" points="81.14 341.33 87.24 346.76 98.38 342.38 92.67 336.95 81.14 341.33"/>
    <polygon class="cls-15" points="95.33 335.71 101.43 341.14 112.57 336.76 106.86 331.33 95.33 335.71"/>
    <polygon class="cls-15" points="109.52 330.57 115.62 336 126.76 331.62 121.05 326.19 109.52 330.57"/>
    <polygon class="cls-15" points="123.9 325.67 130 331.1 141.14 326.71 135.43 321.29 123.9 325.67"/>
    <polygon class="cls-15" points="68 365.1 74.1 370.52 85.24 366.14 79.52 360.71 68 365.1"/>
    <polygon class="cls-15" points="153.79 333.67 159.88 339.1 171.02 334.71 165.31 329.29 153.79 333.67"/>
    <polygon class="cls-15" points="168.02 328.24 174.12 333.67 185.26 329.29 179.55 323.86 168.02 328.24"/>
    <polygon class="cls-15" points="131.67 332.19 137.76 337.62 148.9 333.24 143.19 327.81 131.67 332.19"/>
    <polygon class="cls-15" points="116.86 337.9 122.95 343.33 134.1 338.95 128.38 333.52 116.86 337.9"/>
    <polygon class="cls-15" points="103.14 342.81 109.24 348.24 120.38 343.86 114.67 338.43 103.14 342.81"/>
    <polygon class="cls-15" points="88.76 348.05 94.86 353.48 106 349.1 100.29 343.67 88.76 348.05"/>
    <polygon class="cls-15" points="74.57 353.62 80.67 359.05 91.81 354.67 86.1 349.24 74.57 353.62"/>
    <polygon class="cls-15" points="60.06 358.52 66.16 363.95 77.3 359.57 71.59 354.14 60.06 358.52"/>
    <polygon class="cls-15" points="190.19 330 196.29 335.43 207.43 331.05 201.71 325.62 190.19 330"/>
    <polygon class="cls-15" points="145.86 327.29 151.95 332.71 163.1 328.33 157.38 322.9 145.86 327.29"/>
    <polygon class="cls-15" points="182.19 323.05 188.29 328.48 199.43 324.1 193.71 318.67 182.19 323.05"/>
    <polygon class="cls-15" points="196.86 318.14 202.95 323.57 214.1 319.19 208.38 313.76 196.86 318.14"/>
    <polygon class="cls-15" points="160.14 321.95 166.24 327.38 177.38 323 171.67 317.57 160.14 321.95"/>
    <polygon class="cls-15" points="139.81 339.05 145.9 344.48 157.05 340.1 151.33 334.67 139.81 339.05"/>
    <polygon class="cls-15" points="126.76 362.29 132.86 367.71 144 363.33 138.29 357.9 126.76 362.29"/>
    <polygon class="cls-15" points="104.45 361.81 110.54 367.24 121.69 362.86 115.97 357.43 104.45 361.81"/>
    <polygon class="cls-15" points="118.73 356.19 124.83 361.62 135.97 357.24 130.26 351.81 118.73 356.19"/>
    <polygon class="cls-15" points="133.57 350.81 139.67 356.24 150.81 351.86 145.1 346.43 133.57 350.81"/>
    <polygon class="cls-15" points="155.05 352.1 161.14 357.52 172.29 353.14 166.57 347.71 155.05 352.1"/>
    <polygon class="cls-15" points="169.52 347.19 175.62 352.62 186.76 348.24 181.05 342.81 169.52 347.19"/>
    <polygon class="cls-15" points="183.9 341.67 190 347.1 201.14 342.71 195.43 337.29 183.9 341.67"/>
    <polygon class="cls-15" points="175.71 335.48 181.81 340.9 192.95 336.52 187.24 331.1 175.71 335.48"/>
    <polygon class="cls-15" points="161.81 340.62 167.9 346.05 179.05 341.67 173.33 336.24 161.81 340.62"/>
    <polygon class="cls-15" points="146.9 345.52 153 350.95 164.14 346.57 158.43 341.14 146.9 345.52"/>
    <polygon class="cls-15" points="140.9 357.38 146.99 362.81 158.14 358.43 152.42 353 140.9 357.38"/>
    <polygon class="cls-15" points="124.95 344.19 131.05 349.62 142.19 345.24 136.48 339.81 124.95 344.19"/>
    <polygon class="cls-15" points="111.05 349.86 117.14 355.29 128.29 350.9 122.57 345.48 111.05 349.86"/>
    <polygon class="cls-15" points="96.57 354.76 102.67 360.19 113.81 355.81 108.1 350.38 96.57 354.76"/>
    <polygon class="cls-15" points="82.48 360.19 88.57 365.62 99.71 361.24 94 355.81 82.48 360.19"/>
    <polygon class="cls-15" points="263.71 321.95 269.81 327.38 280.95 323 275.24 317.57 263.71 321.95"/>
    <polygon class="cls-15" points="241.14 320.81 247.24 326.24 258.38 321.86 252.67 316.43 241.14 320.81"/>
    <polygon class="cls-15" points="249.76 327.95 255.86 333.38 267 329 261.29 323.57 249.76 327.95"/>
    <polygon class="cls-15" points="255.71 315.26 261.81 320.69 272.95 316.31 267.24 310.88 255.71 315.26"/>
    <polygon class="cls-15" points="234.38 333 240.48 338.43 251.62 334.05 245.9 328.62 234.38 333"/>
    <polygon class="cls-15" points="226.86 326.38 232.95 331.81 244.1 327.43 238.38 322 226.86 326.38"/>
    <polygon class="cls-15" points="218.76 319.5 224.86 324.93 236 320.55 230.29 315.12 218.76 319.5"/>
    <polygon class="cls-15" points="204.67 324.38 210.76 329.81 221.9 325.43 216.19 320 204.67 324.38"/>
    <polygon class="cls-15" points="212.26 331.52 218.36 336.95 229.5 332.57 223.79 327.14 212.26 331.52"/>
    <polygon class="cls-15" points="197.9 336.76 204 342.19 215.14 337.81 209.43 332.38 197.9 336.76"/>
    <polygon class="cls-15" points="119.67 374.71 125.76 380.14 136.9 375.76 131.19 370.33 119.67 374.71"/>
    <polygon class="cls-15" points="106 380.48 112.1 385.9 123.24 381.52 117.52 376.1 106 380.48"/>
    <polygon class="cls-15" points="91.1 385.38 97.19 390.81 108.33 386.43 102.62 381 91.1 385.38"/>
    <polygon class="cls-15" points="111.76 367.57 117.86 373 129 368.62 123.29 363.19 111.76 367.57"/>
    <polygon class="cls-15" points="90.19 366.71 96.29 372.14 107.43 367.76 101.71 362.33 90.19 366.71"/>
    <polygon class="cls-15" points="75.57 371.62 81.67 377.05 92.81 372.67 87.1 367.24 75.57 371.62"/>
    <polygon class="cls-15" points="288.14 302.86 294.24 308.29 305.38 303.9 299.67 298.48 288.14 302.86"/>
    <polygon class="cls-15" points="298.76 261.19 304.86 266.62 316 262.24 310.29 256.81 298.76 261.19"/>
    <polygon class="cls-15" points="284.1 266.9 290.19 272.33 301.33 267.95 295.62 262.52 284.1 266.9"/>
    <polygon class="cls-15" points="270.1 271.81 276.19 277.24 287.33 272.86 281.62 267.43 270.1 271.81"/>
    <polygon class="cls-15" points="255.71 276.71 261.81 282.14 272.95 277.76 267.24 272.33 255.71 276.71"/>
    <polygon class="cls-15" points="278.24 278.24 284.33 283.67 295.48 279.29 289.76 273.86 278.24 278.24"/>
    <polygon class="cls-15" points="263.71 283.57 269.81 289 280.95 284.62 275.24 279.19 263.71 283.57"/>
    <polygon class="cls-15" points="271.52 290.33 277.62 295.76 288.76 291.38 283.05 285.95 271.52 290.33"/>
    <polygon class="cls-15" points="279.52 297.24 285.62 302.67 296.76 298.29 291.05 292.86 279.52 297.24"/>
    <polygon class="cls-15" points="277.81 317.05 283.9 322.48 295.05 318.1 289.33 312.67 277.81 317.05"/>
    <polygon class="cls-15" points="269.62 310.81 275.71 316.24 286.86 311.86 281.14 306.43 269.62 310.81"/>
    <polygon class="cls-15" points="233.24 314.48 239.33 319.9 250.48 315.52 244.76 310.1 233.24 314.48"/>
    <polygon class="cls-15" points="325.14 299.14 331.24 304.57 342.38 300.19 336.67 294.76 325.14 299.14"/>
    <polygon class="cls-15" points="309.95 304.9 316.05 310.33 327.19 305.95 321.48 300.52 309.95 304.9"/>
    <polygon class="cls-15" points="302.05 298.17 308.14 303.6 319.29 299.21 313.57 293.79 302.05 298.17"/>
    <polygon class="cls-15" points="295.95 309.81 302.05 315.24 313.19 310.86 307.48 305.43 295.95 309.81"/>
    <polygon class="cls-15" points="293.43 291.43 299.52 296.86 310.67 292.48 304.95 287.05 293.43 291.43"/>
    <polygon class="cls-15" points="286.14 284.81 292.24 290.24 303.38 285.86 297.67 280.43 286.14 284.81"/>
    <polygon class="cls-15" points="308.57 286.52 314.67 291.95 325.81 287.57 320.1 282.14 308.57 286.52"/>
    <polygon class="cls-15" points="300.71 279.9 306.81 285.33 317.95 280.95 312.24 275.52 300.71 279.9"/>
    <polygon class="cls-15" points="292.71 273.33 298.81 278.76 309.95 274.38 304.24 268.95 292.71 273.33"/>
    <polygon class="cls-15" points="306.67 267.81 312.76 273.24 323.9 268.86 318.19 263.43 306.67 267.81"/>
    <polygon class="cls-15" points="316.52 293.26 322.62 298.69 333.76 294.31 328.05 288.88 316.52 293.26"/>
    <polygon class="cls-15" points="247.43 308.9 253.62 315 279.52 305.05 272.33 299.19 247.43 308.9"/>
    <polygon class="cls-15" points="314.67 274.52 328.76 286.43 340.38 282.14 325.81 270.24 314.67 274.52"/>
    <polygon class="cls-15" points="331.05 287.48 345.05 299.67 356.86 295.24 342.38 283.1 331.05 287.48"/>
    <polygon class="cls-15" points="237.62 339.1 140.29 375.24 134.1 369.38 231.67 333.67 237.62 339.1"/>
    <polygon class="cls-15" points="115.52 374.05 109.52 368.62 83.71 377.95 89.76 383.86 115.52 374.05"/>
    <polygon class="cls-15" points="207.43 368.62 249.4 405.41 325.81 376.1 284.1 340.9 207.43 368.62"/>
    <g>
      <g>
        <path class="cls-12" d="M176.1,225.21c.03.14.06.28.09.42.13.62.44,1.32.55,1.86.02.12-.12.85.31,2.35-2.19.72-4.31,1.28-6.55,1.78-.46-.9-.66-2.29-.85-3.34-.14-.76-.18-1.4-.27-2.14,1.65,1.11,5-.12,6.72-.94Z"/>
        <path class="cls-3" d="M175.71,223.31l.26,1.26.13.63c-1.73.82-5.07,2.05-6.72.94-.06-.49-.23-.98-.3-1.47,2.94,1.06,4.43.7,6.64-1.36Z"/>
      </g>
      <g>
        <path class="cls-13" d="M185.16,125.44c-.47-1.46-1.12-2.86-1.72-4.26,2.13-.68,9.01-3.48,10.14-3.62,1.93-.24,1.6,3,1.06,3.51-.4.38-8.12,3.69-9.48,4.36Z"/>
        <path class="cls-13" d="M121.44,133.9c.03,1.36.14,3.41.3,4.77l-6.13-.28c-1.8-.76-6.18.58-5.2-3.54,3.65-.32,7.41-1.16,11.03-.94Z"/>
        <path class="cls-13" d="M124.94,115.62c-.39.93-.78,1.88-1.1,2.86-2.26-1.17-13.42-7.13-7.75-9.39q4.42,3.26,8.85,6.53Z"/>
        <path class="cls-13" d="M147.22,95.9c-.75.11-1.53.28-2.27.46-.6-2.18-3-12.9-2.99-13.77,0-1.52,1.81-2.09,2.55-.74.33.61,2.45,12.14,2.71,14.04Z"/>
        <path class="cls-13" d="M175.73,108.27c-.53-.63-2-2.19-2.59-2.76,1.77-2.08,5.33-11.5,7.29-8.85,2.05,1.98-3.52,7.96-4.7,11.61Z"/>
        <path class="cls-13" d="M198.56,142.23c-3.37.46-7.41-.39-10.97-.82.02-1.29.04-2.17-.04-3.5,1.44.26,10.09,1.45,10.57,1.78.68.46.69,1.8.44,2.54Z"/>
        <path class="cls-13" d="M162.34,98.07c-.81-.36-1.75-.74-2.57-1.01.8-4.23-.05-13.81,2.65-12.18,1.56.51-.05,9.81-.08,13.19Z"/>
        <path class="cls-13" d="M134.03,102.34c-.4.35-1.56,1.51-1.96,1.94l-5.47-11.06c1.76-5.28,4.37,4.81,7.44,9.12Z"/>
        <path class="cls-4" d="M121.91,126.34c-.01.1-.05.62-.11,1.12-7.12-3.51-6.88-5.01.11-1.12Z"/>
        <path class="cls-4" d="M180.57,115.41c-.26-.46-.51-.92-.79-1.38,5.55-5.93,4.84-4.78.79,1.38Z"/>
        <path class="cls-4" d="M186.99,132.75c-.09-.49-.2-.98-.3-1.47,5.2-1.41,5.95.25.3,1.47Z"/>
        <path class="cls-13" d="M183.97,159.93c.52-1.79,1.16-3.44,1.25-3.77,1.27.81,9.14,5.15,9.35,6.1-.27,6.25-5.86-.46-10.6-2.33Z"/>
        <path class="cls-13" d="M135.75,169.16c-3.31,3.38-7.46,13.16-9.27,6.62.01-.67,6.15-8.01,7.09-9.03.66.84,1.49,1.56,2.18,2.41Z"/>
        <path class="cls-13" d="M124.32,150.43c.25.76.92,2.67,1.18,3.27-3.63,1.79-9.96,8.3-10.24,3.53.02-.71,7.83-6.34,9.07-6.8Z"/>
        <path class="cls-4" d="M122.74,144.39c.07.35.14.71.22,1.05-6,1.86-6.06-.96-.22-1.05Z"/>
        <g>
          <path class="cls-6" d="M147.22,95.9c3.89-.58,8.61-.13,12.55,1.16.82.27,1.76.65,2.57,1.01,3.01,1.33,8.22,4.93,10.81,7.44.59.58,2.06,2.14,2.59,2.76.81.97,3.31,4.55,4.05,5.76.28.45.52.91.79,1.38,1.07,1.87,2.02,3.76,2.87,5.78.59,1.4,1.24,2.8,1.72,4.26.62,1.9,1.13,3.86,1.53,5.83.1.49.22.98.3,1.47.3,1.72.44,3.43.55,5.16.09,1.33.07,2.21.04,3.5-.09,5.01-1.11,10.17-2.37,14.76-.09.33-.73,1.98-1.25,3.77-.52,1.81-2.79,7.35-2.71,9.01.18,3.73,3.3,9.58-.63,14.18.53,2.58.18,8.95.33,9.81.1.63.53.93.54.99.88,4.91,2.14,8.15,1.41,13.43-1.52,5.6-3.12,6.11-4.12,7.87-.51.89-.6,1.11-.91,2.16-.48-1.59,1.53-2.3-.31-2.35.28-.28.92-2.5.98-2.62,1.19-2.13,2.39-3.43,2.74-6.38.29-2.51-.67-9.17-1.04-10-.2-.45-1.36-.46-1.41-2.78-.02-.74,2.22-8.33-1.53-9.13-1.38-.29-5.33,1.11-6.8,1.39-2.08.4-4.08.8-6.15,1.26-4.44.98-8.92,1.78-13.36,2.74-.44.39.38,2.58.57,3.18.22.71.74,1.84,1.05,2.64.36.91,1.1,2.14,1.46,2.99.29.7.7,1.91.89,2.67-1.2.1-.1,1.96-.01,2.42.36,1.89.65,3.14,1.36,4.99.66,1.71.83,1.71.87,1.8,1.03,2.01,1.66,2.49,3.17,3.96.66.64,1.52,1.14,2.21,1.74.57.5,1.62,1.4,1.93,2.02-.53.08-.88.01-1.05.65-.06-.06-.49-.25-.57-.32-1.01-.91-3.84-2.16-5.9-4.94-3.87-5.21-3.99-12.11-4.71-14.73-.12-.42-2.98-7.75-3.19-8.13-1.07-1.94-3.2-.68-5.58-8.29-.41-1.31-.63-3.86-.99-4.85-.52-1.4-5.46-6.58-6.74-8.17-.69-.85-1.52-1.57-2.18-2.41-2.57-3.26-6.4-9.09-8.08-13.05-.25-.6-.92-2.51-1.18-3.27-.58-1.73-.95-3.22-1.36-4.99-.08-.35-.14-.7-.22-1.05-.41-1.92-.78-3.77-1-5.72-.16-1.35-.28-3.4-.3-4.77-.03-1.61.17-4.83.37-6.44.06-.5.09-1.02.11-1.12.21-1.41,1.46-6.41,1.93-7.86.32-.98.71-1.93,1.1-2.86,1.69-4.07,4.36-8.4,7.12-11.34.4-.43,1.56-1.58,1.96-1.94,3.09-2.75,7.13-4.99,10.92-5.97.73-.19,1.52-.35,2.27-.46Z"/>
          <path class="cls-17" d="M170.62,179.57c.11-.02.29,0,.3-.17.07-1.16-3.71-16.48-3.8-18.54,0-.1.43-1.2.46-1.85.34-7.27,1.71-16.4,2.21-24.6.51-8.36.58-16.81.56-25.25,4.49,14.63,10.31,26.68,7.44,42.05-1.98,10.59-7.65,16.14-3.84,30.64l3.24-.66c-.65-3.1-1.91-9.19-1.61-11.96.33-3.06,3.82-9.05,4.7-13.26,2.46-11.74.06-26.83-4.01-38.47-1.84-5.26-2.78-6.4-5.43-10.85,2.48,1.03,9.32,12.03,10.76,15.46,9.33,22.2-2.15,38.79-2.4,45.06-.16,4.04,2.18,8.26.84,12.34-1.21,3.68-5.85,2.47-8.62,3.63-.19-.12-.69-3.02-.82-3.56Z"/>
          <path class="cls-20" d="M170.84,106.64c-.28-.12-.61-.54-.71-.18.14.9.21,1.8.22,2.7.02,8.44-.05,16.89-.56,25.25-.5,8.2-1.87,17.33-2.21,24.6-.03.65-.47,1.75-.46,1.85.09,2.06,3.87,17.38,3.8,18.54-.01.17-.19.15-.3.17-3.05-13.48-6.28-34.3-9.26-45.96-.01-.05.16-.87-.3-1.04-.38-.14-4.68,1.22-4.96.91,1.78-11.05,3.96-22.24,4.59-33.54,3.23,1.24,7.55,3.75,10.15,6.7Z"/>
          <g>
            <path class="cls-13" d="M160.7,99.94c-.63,11.3-2.82,22.49-4.59,33.54.28.32,4.58-1.05,4.96-.91.46.17.28.98.3,1.04-.03-.14-.04-.39-.17-.4-1.08-.11-12.97,2.83-15.76,3.34,3.68,16.52,7.14,33.1,11.33,49.48-3.01.44-6.83,3.14-9.5-.25-2.31-2.93-1.92-6.33-2.96-9.49-1.21-3.68-10.95-11.96-15.64-21.16-15.04-29.47,4.72-65.67,32.04-55.2Z"/>
            <path class="cls-4" d="M146.7,100.4c3.58-.98,7.71-.94,11,2.24.11,1.76-15.18,2.68-18.97,21.01-2.07,10-.05,20.52,2.25,30.71.3,1.31,3.03,10.68,2.67,10.98-19.9-17.37-16.11-59.71,3.04-64.95Z"/>
          </g>
          <path class="cls-8" d="M170.84,106.64c2.65,4.45,3.59,5.59,5.43,10.85,4.07,11.65,6.47,26.73,4.01,38.47-.88,4.2-4.37,10.19-4.7,13.26-.3,2.78.96,8.86,1.61,11.96l-3.24.66c-3.81-14.5,1.86-20.06,3.84-30.64,2.87-15.37-2.95-27.42-7.44-42.05,0-.9-.08-1.8-.22-2.7.1-.36.43.07.71.18Z"/>
          <g>
            <path class="cls-13" d="M166.46,168.35c.05.28.12.56.17.84.29,1.57,2.98,14.01,2.53,14.41-1.24.08-10.32,2.46-10.67,1.86-1.13-1.93-9.3-39.61-10.42-45.06q6.23-1.28,12.47-2.56c2.1,10.15,4.01,20.33,5.92,30.51Z"/>
            <path class="cls-1" d="M166.46,168.35c-1.91-10.18-3.82-20.36-5.92-30.51q-6.23,1.28-12.47,2.56c1.12,5.45,9.29,43.13,10.42,45.06.35.6,9.43-1.78,10.67-1.86.44-.39-2.24-12.83-2.53-14.41q1.52,6.99,3.04,13.98l-.42.85c-1.34.08-10.61,2.57-10.99,1.93-1.15-1.95-9.63-40.2-10.55-45.69l.3-.61q6.31-1.13,12.61-2.26c.65,4.05,6.24,29.26,6.15,30.79-.01.17-.19.15-.3.17Z"/>
            <path class="cls-20" d="M154.49,139.19q2.75-.56,5.5-1.13c3.26,14.81,6.11,30.1,8.92,45.15q-3.88.63-7.75,1.26c-2.03-15.12-4.88-30.15-6.67-45.28Z"/>
          </g>
        </g>
        <g>
          <path class="cls-19" d="M177.87,217.38c-.87,3-.33,2.91-.37,3.15,0,.03.07.19-.03.67-.06.26-1.48,1.86-1.76,2.12-2.21,2.06-3.7,2.42-6.64,1.36-.01,0,.05-.07-.21-.18-3.36-1.43-3.6-4.12-5.43-5.91.17-.64.51-.57,1.05-.65,2.14-.33,11.29-1.96,12.63-2.59.26-.12.23-.1.44-.31,1.85.05-.16.76.31,2.35Z"/>
          <g>
            <path class="cls-9" d="M170.49,185.53c0,1.21.31,2.43.57,3.61.17.77.35,1.54.39,2.33,1.61-.54,5.44-.84,6.39-1.31l.32,3.23-6.15,1.26c-.52-4.4-.85-3-6.31-2-4.39.81-8.73,1.86-13.11,2.69-.31-.8-.83-1.92-1.05-2.64,1.98-1.06,12.62-2.45,13.15-2.92.41-.36-.33-2.4-.36-3,2.07-.46,4.07-.86,6.15-1.26Z"/>
            <path class="cls-9" d="M172.58,199.81c.44,1.61.59,3.24.83,4.88.01.07.03.14.04.21l-17.16,3.52c-.71-1.85-1-3.1-1.36-4.99l17.65-3.62Z"/>
            <path class="cls-9" d="M173.68,206.83c.59,2.12.54,4.35.98,3.97-.02.01-.21.36-.24.49q-7.04,1.44-14.08,2.89c-1.52-1.46-2.14-1.95-3.17-3.96,5.53-1,10.98-2.43,16.51-3.39Z"/>
            <path class="cls-9" d="M180.24,196.04c.36.82,1.33,7.49,1.04,10-.35,2.95-1.56,4.25-2.74,6.38l-3.89.8c-.04-.74-.24-1.84-.23-1.93.02-.13.22-.47.24-.49.43-.33,4.44-.68,4.78-.98.13-.12.77-3.55.94-4.04-2.16.42-4.38.64-6.54,1.01-.1-.63-.3-1.26-.39-1.9-.01-.07-.03-.14-.04-.21,6.44-1.84,8.15.66,6.21-6.32q-3.46.6-6.92,1.2l-.43-2.11c2.63-.59,5.27-1.23,7.98-1.42Z"/>
            <path class="cls-9" d="M166.2,195.85l5.67-1.16c-.21.87.48,2.29.28,2.58-.29.41-5.08.46-5.18,1.5-3.98.87-7.97,1.76-12.02,2.25-.18-.76-.59-1.98-.89-2.67q6.07-1.25,12.14-2.49Z"/>
            <path class="cls-5" d="M164.34,186.79c.03.6.77,2.64.36,3-.53.47-11.17,1.86-13.15,2.92-.19-.6-1.01-2.79-.57-3.18,4.44-.96,8.92-1.76,13.36-2.74Z"/>
            <path class="cls-5" d="M165.71,192.65l.49,3.19q-6.07,1.25-12.14,2.49c-.36-.85-1.1-2.08-1.46-2.99,4.38-.83,8.73-1.88,13.11-2.69Z"/>
            <path class="cls-5" d="M154.94,201.01c4.05-.49,8.05-1.37,12.02-2.25,1.77-.39,3.53-.91,5.3-1.31l.43,2.11-.12.24-17.65,3.62c-.09-.46-1.19-2.32.01-2.42Z"/>
            <path class="cls-5" d="M173.45,204.9c.09.63.29,1.26.39,1.9-.05,0-.11.02-.16.03-5.53.96-10.99,2.39-16.51,3.39-.05-.09-.22-.08-.87-1.8l17.16-3.52Z"/>
            <path class="cls-9" d="M174.65,213.21c.05.93.21,1.24-.03,2.31l2.49-.18c-1.34.63-10.49,2.26-12.63,2.59-.31-.62-1.36-1.52-1.93-2.02q6.05-1.35,12.1-2.7Z"/>
            <path class="cls-5" d="M174.42,211.28c-.02.09.19,1.19.23,1.93q-6.05,1.35-12.1,2.7c-.69-.6-1.55-1.1-2.21-1.74q7.04-1.44,14.08-2.89Z"/>
            <path class="cls-9" d="M177.29,184.13c-.28,2.42.72,2.4,1.06,3.51q-3.64.75-7.29,1.49c-.26-1.18-.58-2.4-.57-3.61,1.47-.28,5.42-1.69,6.8-1.39Z"/>
            <path class="cls-6" d="M178.18,193.39l.65-.13c.05,2.32,1.21,2.33,1.41,2.78-2.7.19-5.35.83-7.98,1.42-1.77.39-3.53.92-5.3,1.31.09-1.04,4.88-1.09,5.18-1.5.21-.28-.49-1.7-.28-2.58l.16-.03,6.15-1.26Z"/>
            <path class="cls-9" d="M178.82,193.26l-.65.13-.32-3.23c.82-.41.83-1.41.5-2.52-.34-1.11-1.34-1.09-1.06-3.51,3.75.8,1.52,8.38,1.53,9.13Z"/>
            <path class="cls-6" d="M178.54,212.42c-.07.12-.7,2.34-.98,2.62-.21.21-.18.19-.44.31l-2.49.18c.25-1.07.08-1.38.03-2.31l3.89-.8Z"/>
            <path class="cls-11" d="M172.02,194.65l-.16.03-5.67,1.16-.49-3.19c5.47-1,5.79-2.4,6.31,2Z"/>
            <path class="cls-6" d="M178.35,187.65c.33,1.1.33,2.11-.5,2.52-.95.47-4.78.78-6.39,1.31-.04-.79-.22-1.56-.39-2.33q3.64-.75,7.29-1.49Z"/>
            <path class="cls-14" d="M173.41,204.69c-.24-1.64-.39-3.27-.83-4.88l.12-.24q3.46-.6,6.92-1.2c1.94,6.99.23,4.48-6.21,6.32Z"/>
            <path class="cls-14" d="M174.66,210.8c-.44.38-.39-1.85-.98-3.97.05,0,.11-.02.16-.03,2.17-.37,4.38-.59,6.54-1.01-.17.49-.81,3.92-.94,4.04-.34.3-4.34.65-4.78.98Z"/>
          </g>
        </g>
      </g>
      <g>
        <path class="cls-7" d="M163.44,218.59c1.83,1.79,2.07,4.48,5.43,5.91-2.35-.06-9.12,2.29-10.71,3.73-.31.28-1.29,2.52-4.03,4.23,5.23,1.67,11.3.3,16.36-.83,2.24-.5,4.36-1.07,6.55-1.78,5.4-1.77,11.13-3.93,15.29-8.51.14-3.55-13.28-1.37-14.84-.8.03-.24-.5-.14.37-3.15.3-1.06.4-1.27.91-2.16,4.52-.53,8.98-1.5,13.53-1.9,1.55-.14,26.42-1.76,21.16,4.44-4.82,5.68-34.29,13.48-42.13,15.01-7.13,1.38-31.94,4.47-38.24,1.92-2.02-.82-2.58-2.65-1.19-4.15,4.04-4.35,24.61-10.68,30.97-12.28.08.07.51.26.57.32Z"/>
        <g>
          <path class="cls-16" d="M169.64,228.29c.2,1.05.39,2.44.85,3.34-5.06,1.13-11.13,2.51-16.36.83,2.73-1.7,3.71-3.94,4.03-4.23,3.45,1.38,8,.5,11.48.06Z"/>
          <path class="cls-10" d="M177.05,229.84c-.44-1.5-.29-2.23-.31-2.35,1.72,1,14.94-4.98,14.5-6.6-.34-1.24-12.28.55-13.77.3.1-.47.03-.63.03-.67,1.56-.57,14.98-2.75,14.84.8-4.17,4.58-9.89,6.75-15.29,8.51Z"/>
          <path class="cls-16" d="M168.87,224.5c.25.11.19.17.21.18.07.49.24.98.3,1.47.09.74.13,1.38.27,2.14-3.49.44-8.03,1.32-11.48-.06,1.59-1.45,8.35-3.79,10.71-3.73Z"/>
          <path class="cls-16" d="M176.74,227.49c-.11-.54-.42-1.24-.55-1.86,3.92-1.22,8.03-1.73,11.7-3.83-.16-.78-10.93,2.89-11.92,2.77l-.26-1.26c.28-.26,1.7-1.85,1.76-2.12,1.5.25,13.43-1.54,13.77-.3.44,1.62-12.78,7.6-14.5,6.6Z"/>
          <path class="cls-10" d="M176.18,225.63c-.03-.14-.06-.28-.09-.42l-.13-.63c.98.11,11.75-3.55,11.92-2.77-3.67,2.1-7.78,2.61-11.7,3.83Z"/>
        </g>
      </g>
    </g>
    <polygon class="cls-21" points="3 332.33 3 340.9 162.4 482.87 459.05 365.62 459.05 360.19 163.1 475.76 3 332.33"/>
    <polyline class="cls-25" points="249.4 241.83 254.86 247.06 274.03 239.32 268.56 234.83"/>
    <polyline class="cls-25" points="35.84 320.33 40.63 324.78 60.57 317.1 55 313.33"/>
    <line class="cls-26" x1="3" y1="332.33" x2="296.38" y2="225.1"/>
    <text class="cls-22" transform="translate(513.79 247.34) scale(.87 1)"><tspan x="0" y="0">Study Hacks and P</tspan><tspan class="cls-23" x="1522.37" y="0">r</tspan><tspan x="1586.23" y="0">oductivity</tspan><tspan class="cls-27" x="2386.21" y="0"> </tspan><tspan class="cls-28" x="2409.88" y="0">T</tspan><tspan class="cls-24" x="2503.1" y="0">ools</tspan></text>
  </g>
</svg>