<?xml version="1.0" encoding="UTF-8"?>
<svg id="Layer_2" data-name="Layer 2" xmlns="http://www.w3.org/2000/svg" viewBox="0 0 160.36 32.25">
  <defs>
    <style>
      .cls-1 {
        fill: #152a1d;
      }

      .cls-1, .cls-2, .cls-3, .cls-4, .cls-5, .cls-6, .cls-7, .cls-8, .cls-9, .cls-10, .cls-11, .cls-12, .cls-13, .cls-14, .cls-15, .cls-16, .cls-17, .cls-18, .cls-19, .cls-20, .cls-21 {
        stroke-width: 0px;
      }

      .cls-2, .cls-22 {
        fill: #000;
      }

      .cls-3 {
        fill: #b4b4b2;
      }

      .cls-4 {
        fill: #edd678;
      }

      .cls-23 {
        letter-spacing: -.12em;
      }

      .cls-5 {
        fill: #407b82;
      }

      .cls-6 {
        fill: #10282c;
      }

      .cls-7 {
        fill: #c56972;
      }

      .cls-8 {
        fill: #e48905;
      }

      .cls-9 {
        fill: #154b58;
      }

      .cls-10 {
        fill: #93525f;
      }

      .cls-11 {
        fill: #23606d;
      }

      .cls-12 {
        fill: #483948;
      }

      .cls-24, .cls-25 {
        stroke: #000;
        stroke-miterlimit: 10;
      }

      .cls-24, .cls-15 {
        fill: #333;
      }

      .cls-25 {
        fill: gray;
      }

      .cls-13 {
        fill: #eec32a;
      }

      .cls-26 {
        letter-spacing: -.15em;
      }

      .cls-14 {
        fill: #0c333f;
      }

      .cls-27 {
        letter-spacing: -.02em;
      }

      .cls-22 {
        font-family: GillSansMT-BoldItalic, 'Gill Sans MT';
        font-size: 12.32px;
        font-style: italic;
        font-weight: 700;
      }

      .cls-16 {
        fill: #a75c69;
      }

      .cls-17 {
        fill: #e89908;
      }

      .cls-18 {
        fill: #29abe2;
      }

      .cls-28 {
        letter-spacing: 0em;
      }

      .cls-19 {
        fill: #0a0a0a;
      }

      .cls-20 {
        fill: #ebac12;
      }

      .cls-21 {
        fill: #4d4d4d;
      }
    </style>
  </defs>
  <g id="Layer_1-2" data-name="Layer 1">
    <g>
      <polygon class="cls-25" points=".95 22.13 11.61 31.68 31.32 23.98 20.49 14.99 18.64 15.64 17.36 16.1 4.42 20.86 3.14 21.33 .95 22.13"/>
      <polygon class="cls-2" points=".95 6.88 .95 22.13 .75 21.99 .75 6.79 20.88 0 21.03 .1 .95 6.88"/>
      <polygon class="cls-21" points="20.49 14.99 .95 22.13 .95 6.88 21.03 .1 20.49 14.99"/>
      <polygon class="cls-18" points="19.52 13.72 19.98 1.52 2.17 7.78 2.17 19.98 19.52 13.72"/>
      <polygon class="cls-15" points="12.78 20.3 13.19 20.66 13.93 20.37 13.55 20.01 12.78 20.3"/>
      <polygon class="cls-15" points="14.79 20.82 15.19 21.18 15.94 20.89 15.55 20.53 14.79 20.82"/>
      <polygon class="cls-15" points="17.64 19.79 18.05 20.15 18.79 19.86 18.41 19.5 17.64 19.79"/>
      <polygon class="cls-15" points="16.7 20.15 17.1 20.51 17.84 20.22 17.46 19.85 16.7 20.15"/>
      <polygon class="cls-15" points="15.73 20.47 16.14 20.83 16.88 20.54 16.5 20.18 15.73 20.47"/>
      <polygon class="cls-15" points="13.33 20.75 13.73 21.11 14.48 20.82 14.1 20.46 13.33 20.75"/>
      <polygon class="cls-15" points="14.27 20.37 14.67 20.73 15.42 20.44 15.03 20.08 14.27 20.37"/>
      <polygon class="cls-15" points="15.21 20.04 15.62 20.4 16.36 20.11 15.98 19.75 15.21 20.04"/>
      <polygon class="cls-15" points="16.18 19.69 16.59 20.05 17.33 19.76 16.95 19.4 16.18 19.69"/>
      <polygon class="cls-15" points="17.12 19.36 17.53 19.72 18.27 19.43 17.89 19.07 17.12 19.36"/>
      <polygon class="cls-15" points="10.89 20.99 11.3 21.35 12.04 21.06 11.66 20.7 10.89 20.99"/>
      <polygon class="cls-15" points="11.85 20.63 12.26 20.99 13 20.7 12.62 20.34 11.85 20.63"/>
      <polygon class="cls-15" points="16.58 18.91 16.98 19.27 17.72 18.98 17.34 18.61 16.58 18.91"/>
      <polygon class="cls-15" points="15.61 19.26 16.01 19.63 16.75 19.33 16.37 18.97 15.61 19.26"/>
      <polygon class="cls-15" points="14.69 19.59 15.09 19.95 15.83 19.66 15.45 19.3 14.69 19.59"/>
      <polygon class="cls-15" points="13.73 19.95 14.14 20.31 14.88 20.02 14.5 19.66 13.73 19.95"/>
      <polygon class="cls-15" points="12.35 21.08 12.76 21.44 13.5 21.15 13.12 20.79 12.35 21.08"/>
      <polygon class="cls-15" points="9.96 21.32 10.37 21.68 11.11 21.39 10.73 21.03 9.96 21.32"/>
      <polygon class="cls-15" points="4.25 23.4 4.65 23.76 5.4 23.47 5.02 23.11 4.25 23.4"/>
      <polygon class="cls-15" points="5.21 23.08 5.62 23.44 6.36 23.15 5.98 22.78 5.21 23.08"/>
      <polygon class="cls-15" points="6.16 22.73 6.56 23.09 7.3 22.8 6.92 22.44 6.16 22.73"/>
      <polygon class="cls-15" points="7.1 22.35 7.51 22.71 8.25 22.42 7.87 22.06 7.1 22.35"/>
      <polygon class="cls-15" points="8.05 22.01 8.45 22.37 9.19 22.08 8.81 21.72 8.05 22.01"/>
      <polygon class="cls-15" points="9 21.68 9.41 22.05 10.15 21.75 9.77 21.39 9 21.68"/>
      <polygon class="cls-15" points="5.28 24.31 5.69 24.67 6.43 24.38 6.05 24.02 5.28 24.31"/>
      <polygon class="cls-15" points="10.99 22.22 11.4 22.58 12.14 22.29 11.76 21.92 10.99 22.22"/>
      <polygon class="cls-15" points="11.94 21.85 12.35 22.22 13.09 21.92 12.71 21.56 11.94 21.85"/>
      <polygon class="cls-15" points="9.52 22.12 9.93 22.48 10.67 22.19 10.29 21.83 9.52 22.12"/>
      <polygon class="cls-15" points="8.54 22.5 8.94 22.86 9.68 22.57 9.3 22.21 8.54 22.5"/>
      <polygon class="cls-15" points="7.62 22.83 8.03 23.19 8.77 22.89 8.39 22.53 7.62 22.83"/>
      <polygon class="cls-15" points="6.66 23.17 7.07 23.54 7.81 23.24 7.43 22.88 6.66 23.17"/>
      <polygon class="cls-15" points="5.72 23.54 6.13 23.91 6.87 23.61 6.49 23.25 5.72 23.54"/>
      <polygon class="cls-15" points="4.75 23.87 5.16 24.23 5.9 23.94 5.52 23.58 4.75 23.87"/>
      <polygon class="cls-15" points="13.42 21.97 13.82 22.33 14.57 22.04 14.19 21.68 13.42 21.97"/>
      <polygon class="cls-15" points="10.47 21.79 10.87 22.15 11.61 21.86 11.23 21.5 10.47 21.79"/>
      <polygon class="cls-15" points="12.89 21.51 13.29 21.87 14.03 21.58 13.65 21.22 12.89 21.51"/>
      <polygon class="cls-15" points="13.86 21.18 14.27 21.54 15.01 21.25 14.63 20.89 13.86 21.18"/>
      <polygon class="cls-15" points="11.42 21.44 11.82 21.8 12.56 21.51 12.18 21.14 11.42 21.44"/>
      <polygon class="cls-15" points="10.06 22.57 10.47 22.94 11.21 22.64 10.83 22.28 10.06 22.57"/>
      <polygon class="cls-15" points="9.19 24.12 9.6 24.48 10.34 24.19 9.96 23.83 9.19 24.12"/>
      <polygon class="cls-15" points="7.71 24.09 8.11 24.45 8.86 24.16 8.48 23.8 7.71 24.09"/>
      <polygon class="cls-15" points="8.66 23.72 9.07 24.08 9.81 23.79 9.43 23.42 8.66 23.72"/>
      <polygon class="cls-15" points="9.65 23.36 10.05 23.72 10.8 23.43 10.42 23.07 9.65 23.36"/>
      <polygon class="cls-15" points="11.08 23.44 11.48 23.8 12.23 23.51 11.85 23.15 11.08 23.44"/>
      <polygon class="cls-15" points="12.04 23.12 12.45 23.48 13.19 23.19 12.81 22.83 12.04 23.12"/>
      <polygon class="cls-15" points="13 22.75 13.41 23.11 14.15 22.82 13.77 22.46 13 22.75"/>
      <polygon class="cls-15" points="12.45 22.34 12.86 22.7 13.6 22.41 13.22 22.05 12.45 22.34"/>
      <polygon class="cls-15" points="11.53 22.68 11.93 23.04 12.68 22.75 12.3 22.39 11.53 22.68"/>
      <polygon class="cls-15" points="10.54 23.01 10.94 23.37 11.68 23.08 11.3 22.71 10.54 23.01"/>
      <polygon class="cls-15" points="10.14 23.8 10.54 24.16 11.28 23.86 10.9 23.5 10.14 23.8"/>
      <polygon class="cls-15" points="9.07 22.92 9.48 23.28 10.22 22.99 9.84 22.63 9.07 22.92"/>
      <polygon class="cls-15" points="8.15 23.29 8.55 23.66 9.3 23.36 8.92 23 8.15 23.29"/>
      <polygon class="cls-15" points="7.18 23.62 7.59 23.98 8.33 23.69 7.95 23.33 7.18 23.62"/>
      <polygon class="cls-15" points="6.25 23.98 6.65 24.34 7.39 24.05 7.01 23.69 6.25 23.98"/>
      <polygon class="cls-15" points="18.31 21.44 18.72 21.8 19.46 21.51 19.08 21.14 18.31 21.44"/>
      <polygon class="cls-15" points="16.81 21.36 17.22 21.72 17.96 21.43 17.58 21.07 16.81 21.36"/>
      <polygon class="cls-15" points="17.38 21.84 17.79 22.2 18.53 21.91 18.15 21.54 17.38 21.84"/>
      <polygon class="cls-15" points="17.78 20.99 18.19 21.35 18.93 21.06 18.55 20.7 17.78 20.99"/>
      <polygon class="cls-15" points="16.36 22.17 16.77 22.53 17.51 22.24 17.13 21.88 16.36 22.17"/>
      <polygon class="cls-15" points="15.86 21.73 16.26 22.09 17.01 21.8 16.63 21.44 15.86 21.73"/>
      <polygon class="cls-15" points="15.32 21.27 15.73 21.63 16.47 21.34 16.09 20.98 15.32 21.27"/>
      <polygon class="cls-15" points="14.38 21.6 14.79 21.96 15.53 21.67 15.15 21.31 14.38 21.6"/>
      <polygon class="cls-15" points="14.89 22.07 15.29 22.44 16.04 22.14 15.65 21.78 14.89 22.07"/>
      <polygon class="cls-15" points="13.93 22.42 14.34 22.78 15.08 22.49 14.7 22.13 13.93 22.42"/>
      <polygon class="cls-15" points="8.72 24.95 9.13 25.31 9.87 25.02 9.49 24.66 8.72 24.95"/>
      <polygon class="cls-15" points="7.81 25.33 8.22 25.69 8.96 25.4 8.58 25.04 7.81 25.33"/>
      <polygon class="cls-15" points="6.82 25.66 7.23 26.02 7.97 25.73 7.59 25.37 6.82 25.66"/>
      <polygon class="cls-15" points="8.2 24.47 8.6 24.84 9.34 24.54 8.96 24.18 8.2 24.47"/>
      <polygon class="cls-15" points="6.76 24.42 7.17 24.78 7.91 24.49 7.53 24.12 6.76 24.42"/>
      <polygon class="cls-15" points="5.79 24.74 6.19 25.1 6.93 24.81 6.55 24.45 5.79 24.74"/>
      <polygon class="cls-15" points="19.94 20.16 20.35 20.53 21.09 20.23 20.71 19.87 19.94 20.16"/>
      <polygon class="cls-15" points="20.65 17.39 21.05 17.75 21.79 17.46 21.41 17.1 20.65 17.39"/>
      <polygon class="cls-15" points="19.67 17.77 20.08 18.13 20.82 17.84 20.44 17.48 19.67 17.77"/>
      <polygon class="cls-15" points="18.74 18.1 19.14 18.46 19.89 18.17 19.51 17.81 18.74 18.1"/>
      <polygon class="cls-15" points="17.78 18.42 18.19 18.79 18.93 18.49 18.55 18.13 17.78 18.42"/>
      <polygon class="cls-15" points="19.28 18.53 19.69 18.89 20.43 18.6 20.05 18.23 19.28 18.53"/>
      <polygon class="cls-15" points="18.31 18.88 18.72 19.24 19.46 18.95 19.08 18.59 18.31 18.88"/>
      <polygon class="cls-15" points="18.83 19.33 19.24 19.69 19.98 19.4 19.6 19.04 18.83 19.33"/>
      <polygon class="cls-15" points="19.37 19.79 19.77 20.15 20.51 19.86 20.13 19.5 19.37 19.79"/>
      <polygon class="cls-15" points="19.25 21.11 19.66 21.47 20.4 21.18 20.02 20.82 19.25 21.11"/>
      <polygon class="cls-15" points="18.71 20.69 19.11 21.06 19.85 20.76 19.47 20.4 18.71 20.69"/>
      <polygon class="cls-15" points="16.28 20.94 16.69 21.3 17.43 21.01 17.05 20.65 16.28 20.94"/>
      <polygon class="cls-15" points="22.4 19.92 22.81 20.28 23.55 19.99 23.17 19.63 22.4 19.92"/>
      <polygon class="cls-15" points="21.39 20.3 21.8 20.66 22.54 20.37 22.16 20.01 21.39 20.3"/>
      <polygon class="cls-15" points="20.87 19.85 21.27 20.21 22.01 19.92 21.63 19.56 20.87 19.85"/>
      <polygon class="cls-15" points="20.46 20.63 20.87 20.99 21.61 20.7 21.23 20.34 20.46 20.63"/>
      <polygon class="cls-15" points="20.29 19.4 20.7 19.77 21.44 19.47 21.06 19.11 20.29 19.4"/>
      <polygon class="cls-15" points="19.81 18.96 20.21 19.32 20.95 19.03 20.57 18.67 19.81 18.96"/>
      <polygon class="cls-15" points="21.3 19.08 21.71 19.44 22.45 19.15 22.07 18.79 21.3 19.08"/>
      <polygon class="cls-15" points="20.78 18.64 21.18 19 21.92 18.71 21.54 18.35 20.78 18.64"/>
      <polygon class="cls-15" points="20.24 18.2 20.65 18.56 21.39 18.27 21.01 17.91 20.24 18.2"/>
      <polygon class="cls-15" points="21.17 17.83 21.58 18.19 22.32 17.9 21.94 17.54 21.17 17.83"/>
      <polygon class="cls-15" points="21.83 19.53 22.24 19.89 22.98 19.6 22.6 19.23 21.83 19.53"/>
      <polygon class="cls-15" points="17.23 20.57 17.64 20.97 19.37 20.31 18.89 19.92 17.23 20.57"/>
      <polygon class="cls-15" points="21.71 18.28 22.64 19.07 23.42 18.79 22.45 17.99 21.71 18.28"/>
      <polygon class="cls-15" points="22.8 19.14 23.73 19.95 24.51 19.66 23.55 18.85 22.8 19.14"/>
      <polygon class="cls-15" points="16.58 22.58 10.1 24.98 9.68 24.59 16.18 22.22 16.58 22.58"/>
      <polygon class="cls-15" points="8.45 24.9 8.05 24.54 6.33 25.16 6.73 25.56 8.45 24.9"/>
      <polygon class="cls-15" points="14.57 24.54 17.36 26.99 22.45 25.04 19.67 22.7 14.57 24.54"/>
      <g>
        <g>
          <path class="cls-12" d="M12.48,14.99s0,.02,0,.03c0,.04.03.09.04.12,0,0,0,.06.02.16-.15.05-.29.09-.44.12-.03-.06-.04-.15-.06-.22,0-.05-.01-.09-.02-.14.11.07.33,0,.45-.06Z"/>
          <path class="cls-3" d="M12.45,14.87l.02.08v.04c-.11.05-.33.14-.44.06,0-.03-.02-.07-.02-.1.2.07.29.05.44-.09Z"/>
        </g>
        <g>
          <path class="cls-13" d="M13.08,8.35c-.03-.1-.07-.19-.11-.28.14-.05.6-.23.68-.24.13-.02.11.2.07.23-.03.03-.54.25-.63.29Z"/>
          <path class="cls-13" d="M8.84,8.92c0,.09,0,.23.02.32l-.41-.02c-.12-.05-.41.04-.35-.24.24-.02.49-.08.73-.06Z"/>
          <path class="cls-13" d="M9.07,7.7c-.03.06-.05.13-.07.19-.15-.08-.89-.47-.52-.63l.59.43Z"/>
          <path class="cls-13" d="M10.56,6.39s-.1.02-.15.03c-.04-.15-.2-.86-.2-.92,0-.1.12-.14.17-.05.02.04.16.81.18.93Z"/>
          <path class="cls-13" d="M12.46,7.21s-.13-.15-.17-.18c.12-.14.36-.77.49-.59.14.13-.23.53-.31.77Z"/>
          <path class="cls-13" d="M13.97,9.47c-.22.03-.49-.03-.73-.05,0-.09,0-.14,0-.23.1.02.67.1.7.12.05.03.05.12.03.17Z"/>
          <path class="cls-13" d="M11.56,6.53c-.05-.02-.12-.05-.17-.07.05-.28,0-.92.18-.81.1.03,0,.65,0,.88Z"/>
          <path class="cls-13" d="M9.68,6.81s-.1.1-.13.13l-.36-.74c.12-.35.29.32.5.61Z"/>
          <path class="cls-4" d="M8.87,8.41s0,.04,0,.07c-.47-.23-.46-.33,0-.07Z"/>
          <path class="cls-4" d="M12.78,7.68s-.03-.06-.05-.09c.37-.39.32-.32.05.09Z"/>
          <path class="cls-4" d="M13.2,8.84s-.01-.07-.02-.1c.35-.09.4.02.02.1Z"/>
          <path class="cls-13" d="M13,10.65c.03-.12.08-.23.08-.25.08.05.61.34.62.41-.02.42-.39-.03-.71-.15Z"/>
          <path class="cls-13" d="M9.79,11.26c-.22.22-.5.88-.62.44,0-.04.41-.53.47-.6.04.06.1.1.15.16Z"/>
          <path class="cls-13" d="M9.03,10.02c.02.05.06.18.08.22-.24.12-.66.55-.68.23,0-.05.52-.42.6-.45Z"/>
          <path class="cls-4" d="M8.93,9.61s0,.05.01.07c-.4.12-.4-.06-.01-.07Z"/>
          <g>
            <path class="cls-6" d="M10.56,6.39c.26-.04.57,0,.84.08.05.02.12.04.17.07.2.09.55.33.72.5.04.04.14.14.17.18.05.06.22.3.27.38.02.03.03.06.05.09.07.12.13.25.19.38.04.09.08.19.11.28.04.13.08.26.1.39,0,.03.01.07.02.1.02.11.03.23.04.34,0,.09,0,.15,0,.23,0,.33-.07.68-.16.98,0,.02-.05.13-.08.25-.03.12-.19.49-.18.6.01.25.22.64-.04.94.04.17.01.6.02.65,0,.04.04.06.04.07.06.33.14.54.09.89-.1.37-.21.41-.27.52-.03.06-.04.07-.06.14-.03-.11.1-.15-.02-.16.02-.02.06-.17.07-.17.08-.14.16-.23.18-.42.02-.17-.04-.61-.07-.67-.01-.03-.09-.03-.09-.19,0-.05.15-.55-.1-.61-.09-.02-.35.07-.45.09-.14.03-.27.05-.41.08-.3.07-.59.12-.89.18-.03.03.03.17.04.21.01.05.05.12.07.18.02.06.07.14.1.2.02.05.05.13.06.18-.08,0,0,.13,0,.16.02.13.04.21.09.33.04.11.06.11.06.12.07.13.11.17.21.26.04.04.1.08.15.12.04.03.11.09.13.13-.04,0-.06,0-.07.04,0,0-.03-.02-.04-.02-.07-.06-.26-.14-.39-.33-.26-.35-.27-.81-.31-.98,0-.03-.2-.52-.21-.54-.07-.13-.21-.05-.37-.55-.03-.09-.04-.26-.07-.32-.03-.09-.36-.44-.45-.54-.05-.06-.1-.1-.15-.16-.17-.22-.43-.61-.54-.87-.02-.04-.06-.17-.08-.22-.04-.12-.06-.21-.09-.33,0-.02,0-.05-.01-.07-.03-.13-.05-.25-.07-.38-.01-.09-.02-.23-.02-.32,0-.11.01-.32.02-.43,0-.03,0-.07,0-.07.01-.09.1-.43.13-.52.02-.07.05-.13.07-.19.11-.27.29-.56.47-.76.03-.03.1-.11.13-.13.21-.18.47-.33.73-.4.05-.01.1-.02.15-.03Z"/>
            <path class="cls-17" d="M12.11,11.96s.02,0,.02-.01c0-.08-.25-1.1-.25-1.23,0,0,.03-.08.03-.12.02-.48.11-1.09.15-1.64.03-.56.04-1.12.04-1.68.3.97.69,1.78.5,2.8-.13.7-.51,1.07-.26,2.04l.22-.04c-.04-.21-.13-.61-.11-.8.02-.2.25-.6.31-.88.16-.78,0-1.79-.27-2.56-.12-.35-.19-.43-.36-.72.17.07.62.8.72,1.03.62,1.48-.14,2.58-.16,3-.01.27.15.55.06.82-.08.25-.39.16-.57.24-.01,0-.05-.2-.05-.24Z"/>
            <path class="cls-20" d="M12.13,7.1s-.04-.04-.05-.01c0,.06.01.12.01.18,0,.56,0,1.12-.04,1.68-.03.55-.12,1.15-.15,1.64,0,.04-.03.12-.03.12,0,.14.26,1.16.25,1.23,0,.01-.01,0-.02.01-.2-.9-.42-2.28-.62-3.06,0,0,.01-.06-.02-.07-.03,0-.31.08-.33.06.12-.74.26-1.48.31-2.23.21.08.5.25.68.45Z"/>
            <g>
              <path class="cls-13" d="M11.45,6.65c-.04.75-.19,1.5-.31,2.23.02.02.3-.07.33-.06.03.01.02.07.02.07,0,0,0-.03-.01-.03-.07,0-.86.19-1.05.22.24,1.1.48,2.2.75,3.29-.2.03-.45.21-.63-.02-.15-.2-.13-.42-.2-.63-.08-.24-.73-.8-1.04-1.41-1-1.96.31-4.37,2.13-3.68Z"/>
              <path class="cls-4" d="M10.52,6.68c.24-.07.51-.06.73.15,0,.12-1.01.18-1.26,1.4-.14.67,0,1.37.15,2.04.02.09.2.71.18.73-1.33-1.16-1.07-3.98.2-4.32Z"/>
            </g>
            <path class="cls-8" d="M12.13,7.1c.18.3.24.37.36.72.27.78.43,1.78.27,2.56-.06.28-.29.68-.31.88-.02.18.06.59.11.8l-.22.04c-.25-.97.12-1.34.26-2.04.19-1.02-.2-1.83-.5-2.8,0-.06,0-.12-.01-.18,0-.02.03,0,.05.01Z"/>
            <g>
              <path class="cls-13" d="M11.84,11.21s0,.04.01.06c.02.1.2.93.17.96-.08,0-.69.16-.71.12-.08-.13-.62-2.64-.69-3l.83-.17c.14.68.27,1.35.39,2.03Z"/>
              <path class="cls-1" d="M11.84,11.21c-.13-.68-.25-1.36-.39-2.03l-.83.17c.07.36.62,2.87.69,3,.02.04.63-.12.71-.12.03-.03-.15-.85-.17-.96l.2.93-.03.06c-.09,0-.71.17-.73.13-.08-.13-.64-2.68-.7-3.04l.02-.04.84-.15c.04.27.42,1.95.41,2.05,0,.01-.01,0-.02.01Z"/>
              <path class="cls-20" d="M11.04,9.27l.37-.08c.22.99.41,2,.59,3.01l-.52.08c-.14-1.01-.32-2.01-.44-3.01Z"/>
            </g>
          </g>
          <g>
            <path class="cls-19" d="M12.6,14.47c-.06.2-.02.19-.02.21,0,0,0,.01,0,.04,0,.02-.1.12-.12.14-.15.14-.25.16-.44.09,0,0,0,0-.01-.01-.22-.1-.24-.27-.36-.39.01-.04.03-.04.07-.04.14-.02.75-.13.84-.17.02,0,.02,0,.03-.02.12,0-.01.05.02.16Z"/>
            <g>
              <path class="cls-9" d="M12.11,12.35c0,.08.02.16.04.24.01.05.02.1.03.16.11-.04.36-.06.43-.09l.02.21-.41.08c-.03-.29-.06-.2-.42-.13-.29.05-.58.12-.87.18-.02-.05-.05-.13-.07-.18.13-.07.84-.16.88-.19.03-.02-.02-.16-.02-.2.14-.03.27-.06.41-.08Z"/>
              <path class="cls-9" d="M12.24,13.3c.03.11.04.22.06.32,0,0,0,0,0,.01l-1.14.23c-.05-.12-.07-.21-.09-.33l1.17-.24Z"/>
              <path class="cls-9" d="M12.32,13.77c.04.14.04.29.07.26,0,0-.01.02-.02.03l-.94.19c-.1-.1-.14-.13-.21-.26.37-.07.73-.16,1.1-.23Z"/>
              <path class="cls-9" d="M12.76,13.05c.02.05.09.5.07.67-.02.2-.1.28-.18.42l-.26.05s-.02-.12-.02-.13c0,0,.01-.03.02-.03.03-.02.3-.05.32-.07,0,0,.05-.24.06-.27-.14.03-.29.04-.44.07,0-.04-.02-.08-.03-.13,0,0,0,0,0-.01.43-.12.54.04.41-.42l-.46.08-.03-.14c.17-.04.35-.08.53-.09Z"/>
              <path class="cls-9" d="M11.82,13.04l.38-.08c-.01.06.03.15.02.17-.02.03-.34.03-.34.1-.26.06-.53.12-.8.15-.01-.05-.04-.13-.06-.18l.81-.17Z"/>
              <path class="cls-5" d="M11.7,12.44s.05.18.02.2c-.04.03-.74.12-.88.19-.01-.04-.07-.19-.04-.21.3-.06.59-.12.89-.18Z"/>
              <path class="cls-5" d="M11.79,12.83l.03.21-.81.17c-.02-.06-.07-.14-.1-.2.29-.06.58-.13.87-.18Z"/>
              <path class="cls-5" d="M11.07,13.38c.27-.03.54-.09.8-.15.12-.03.24-.06.35-.09l.03.14v.02q-.6.12-1.18.24s-.08-.15,0-.16Z"/>
              <path class="cls-5" d="M12.3,13.64s.02.08.03.13c0,0,0,0-.01,0-.37.06-.73.16-1.1.23,0,0-.01,0-.06-.12l1.14-.23Z"/>
              <path class="cls-9" d="M12.38,14.2c0,.06.01.08,0,.15h.17c-.09.03-.7.14-.84.16-.02-.04-.09-.1-.13-.13l.81-.18Z"/>
              <path class="cls-5" d="M12.37,14.07s.01.08.02.13l-.81.18s-.1-.07-.15-.12l.94-.19Z"/>
              <path class="cls-9" d="M12.56,12.26c-.02.16.05.16.07.23l-.49.1c-.02-.08-.04-.16-.04-.24.1-.02.36-.11.45-.09Z"/>
              <path class="cls-6" d="M12.62,12.88h.04c0,.15.08.15.09.18-.18.01-.36.06-.53.09-.12.03-.23.06-.35.09,0-.07.33-.07.34-.1.01-.02-.03-.11-.02-.17h.01q.2-.04.41-.09Z"/>
              <path class="cls-9" d="M12.66,12.87h-.04q-.01-.1-.02-.21c.05-.03.06-.09.03-.17-.02-.07-.09-.07-.07-.23.25.05.1.56.1.61Z"/>
              <path class="cls-6" d="M12.64,14.14s-.05.16-.07.17c-.01.01-.01.01-.03.02h-.17c.02-.06,0-.08,0-.14l.26-.05Z"/>
              <path class="cls-11" d="M12.21,12.96h-.01q-.19.04-.38.08l-.03-.21c.36-.07.39-.16.42.13Z"/>
              <path class="cls-6" d="M12.63,12.49c.02.07.02.14-.03.17-.06.03-.32.05-.43.09,0-.05-.01-.1-.03-.16l.49-.1Z"/>
              <path class="cls-14" d="M12.3,13.63c-.02-.11-.03-.22-.06-.32v-.02q.24-.04.47-.08c.13.47.02.3-.41.42Z"/>
              <path class="cls-14" d="M12.38,14.04s-.03-.12-.07-.26c0,0,0,0,.01,0,.14-.02.29-.04.44-.07-.01.03-.05.26-.06.27-.02.02-.29.04-.32.07Z"/>
            </g>
          </g>
        </g>
        <g>
          <path class="cls-7" d="M11.64,14.55c.12.12.14.3.36.39-.16,0-.61.15-.71.25-.02.02-.09.17-.27.28.35.11.75.02,1.09-.06.15-.03.29-.07.44-.12.36-.12.74-.26,1.02-.57,0-.24-.88-.09-.99-.05,0-.02-.03,0,.02-.21.02-.07.03-.08.06-.14.3-.04.6-.1.9-.13.1,0,1.76-.12,1.41.3-.32.38-2.28.9-2.81,1-.47.09-2.13.3-2.55.13-.13-.05-.17-.18-.08-.28.27-.29,1.64-.71,2.06-.82,0,0,.03.02.04.02Z"/>
          <g>
            <path class="cls-16" d="M12.05,15.2c.01.07.03.16.06.22-.34.08-.74.17-1.09.06.18-.11.25-.26.27-.28.23.09.53.03.76,0Z"/>
            <path class="cls-10" d="M12.54,15.3c-.03-.1-.02-.15-.02-.16.11.07,1-.33.97-.44-.02-.08-.82.04-.92.02,0-.03,0-.04,0-.04.1-.04,1-.18.99.05-.28.31-.66.45-1.02.57Z"/>
            <path class="cls-16" d="M12,14.95s.01.01.01.01c0,.03.02.07.02.1,0,.05,0,.09.02.14-.23.03-.53.09-.76,0,.11-.1.56-.25.71-.25Z"/>
            <path class="cls-16" d="M12.52,15.15s-.03-.08-.04-.12c.26-.08.53-.12.78-.25-.01-.05-.73.19-.79.18l-.02-.08s.11-.12.12-.14c.1.02.89-.1.92-.02.03.11-.85.51-.97.44Z"/>
            <path class="cls-10" d="M12.49,15.02s0-.02,0-.03v-.04c.06,0,.77-.24.78-.18-.24.14-.52.17-.78.25Z"/>
          </g>
        </g>
      </g>
      <polygon class="cls-21" points=".95 22.13 .95 22.7 11.57 32.15 31.32 24.34 31.32 23.98 11.61 31.68 .95 22.13"/>
      <polyline class="cls-24" points="17.36 16.1 17.72 16.45 19 15.93 18.64 15.64"/>
      <polyline class="cls-24" points="3.14 21.33 3.46 21.62 4.79 21.11 4.42 20.86"/>
      <line class="cls-25" x1=".95" y1="22.13" x2="20.49" y2="14.99"/>
      <text class="cls-22" transform="translate(37.63 19.66) scale(.87 1)"><tspan x="0" y="0">Study &amp; P</tspan><tspan class="cls-27" x="53.43" y="0">r</tspan><tspan class="cls-28" x="57.69" y="0">oductivity</tspan><tspan class="cls-26" x="110.95" y="0"> </tspan><tspan class="cls-23" x="112.53" y="0">T</tspan><tspan x="118.73" y="0">ools</tspan></text>
    </g>
  </g>
</svg>