<?xml version="1.0" encoding="UTF-8"?>
<svg id="Layer_2" data-name="Layer 2" xmlns="http://www.w3.org/2000/svg" viewBox="0 0 188.46 135.82">
  <defs>
    <style>
      .cls-1 {
        fill: #ccc;
      }

      .cls-1, .cls-2, .cls-3, .cls-4, .cls-5, .cls-6, .cls-7 {
        stroke-width: 0px;
      }

      .cls-2 {
        fill: #1a1a1a;
      }

      .cls-8 {
        fill: #39b54a;
      }

      .cls-8, .cls-9 {
        stroke: #000;
        stroke-miterlimit: 10;
      }

      .cls-3 {
        fill: #666;
      }

      .cls-4 {
        fill: #e6e6e6;
      }

      .cls-9, .cls-5 {
        fill: #333;
      }

      .cls-6 {
        fill: #fcee21;
      }

      .cls-7 {
        fill: #4d4d4d;
      }
    </style>
  </defs>
  <g id="Layer_1-2" data-name="Layer 1">
    <g>
      <polygon class="cls-9" points="19.84 88.35 19.84 7 21.25 3.33 23.38 1.21 26.21 .5 161.25 .5 165.08 1.92 167.2 4.75 168.62 6.88 168.62 88.35 166.49 93.31 161.54 96.15 27.74 96.15 22.67 94.73 19.84 90.67 19.84 88.35"/>
      <rect class="cls-8" x="24.8" y="7.58" width="137.36" height="80.75"/>
      <polygon class="cls-5" points="43.22 40.18 96.35 52.93 145.95 37.34 94.58 26.97 43.22 40.18"/>
      <polygon class="cls-7" points="43.22 40.18 43.22 41.59 96.35 55.05 145.95 39.03 145.95 37.34 96.35 52.93 43.22 40.18"/>
      <polygon class="cls-2" points="67.15 47.96 67.31 64.97 69.43 67.81 74.39 69.93 83.6 72.06 93.87 72.56 103.44 72.06 111.23 70.64 116.9 68.51 119.73 67.1 121.86 64.26 121.86 46.81 96.35 55.05 67.15 47.96"/>
      <polygon class="cls-6" points="59.35 45.68 59.35 56.91 58.8 56.91 56.24 73.12 56.68 73.47 63.87 73.47 64.54 73.12 61.92 56.89 61.36 56.89 61.33 46.18 59.35 45.68"/>
      <polygon class="cls-6" points="61.33 46.18 61.33 44.52 87.85 40.88 86.44 39.47 59.17 44 59.35 45.68 61.33 46.18"/>
      <ellipse class="cls-3" cx="94.94" cy="39.34" rx="8.5" ry="2.71"/>
      <polygon class="cls-4" points="24.09 96.85 21.25 98.27 19.84 100.03 0 130.86 3.54 132.99 185.86 132.99 188.46 130.15 168.62 99.35 164.54 96.85 161.54 96.15 24.09 96.85"/>
      <polygon class="cls-1" points="0 130.86 3.54 134.4 9.92 135.82 177.76 135.82 182.79 135.11 186.94 132.99 188.46 130.15 185.86 132.99 3.54 132.99 0 130.86"/>
      <polygon class="cls-5" points="29.05 100.4 27.63 102.52 35.53 102.52 36.34 100.4 29.05 100.4"/>
      <polygon class="cls-5" points="26.21 106.06 25.51 108.19 40.11 108.19 40.92 106.06 26.21 106.06"/>
      <polygon class="cls-5" points="24.8 109.47 23.38 111.73 44.16 111.73 45.11 109.47 24.8 109.47"/>
      <polygon class="cls-5" points="21.96 115.28 30.13 115.28 31.17 112.44 23.38 112.44 21.96 115.28"/>
      <polygon class="cls-5" points="33.21 112.44 31.98 115.28 40.38 115.28 40.92 112.44 33.21 112.44"/>
      <polygon class="cls-5" points="73.51 118.51 71.56 129.45 112.72 129.45 110.52 117.4 73.51 117.4 73.51 118.51"/>
      <polygon class="cls-5" points="65.18 112.44 64.54 115.28 112.72 115.28 112.04 112.44 65.18 112.44"/>
      <rect class="cls-5" x="136.74" y="113.86" width="8.1" height="1.42"/>
      <rect class="cls-5" x="146.05" y="112.41" width="8.1" height="1.42"/>
      <rect class="cls-5" x="156.68" y="113.82" width="8.1" height="1.42"/>
      <rect class="cls-5" x="146.76" y="113.82" width="8.1" height="1.42"/>
      <polygon class="cls-5" points="27.63 103.26 26.57 105.29 39.17 105.29 39.71 103.26 27.63 103.26"/>
      <polygon class="cls-5" points="29.05 99.69 29.76 98.27 37.68 98.27 37.01 99.69 29.05 99.69"/>
      <polygon class="cls-5" points="102.56 99.69 103.27 98.27 111.2 98.27 110.52 99.69 102.56 99.69"/>
      <polygon class="cls-5" points="93.35 99.69 94.06 98.27 101.99 98.27 101.31 99.69 93.35 99.69"/>
      <polygon class="cls-5" points="84.14 99.69 84.85 98.27 92.78 98.27 92.1 99.69 84.14 99.69"/>
      <polygon class="cls-5" points="74.93 99.69 75.64 98.27 83.57 98.27 82.89 99.69 74.93 99.69"/>
      <polygon class="cls-5" points="65.72 99.69 66.43 98.27 74.36 98.27 73.68 99.69 65.72 99.69"/>
      <polygon class="cls-5" points="57.22 99.69 57.93 98.27 65.86 98.27 65.18 99.69 57.22 99.69"/>
      <polygon class="cls-5" points="47.3 99.69 48.01 98.27 55.94 98.27 55.26 99.69 47.3 99.69"/>
      <polygon class="cls-5" points="38.09 99.69 38.8 98.27 46.73 98.27 46.05 99.69 38.09 99.69"/>
      <polygon class="cls-5" points="149.32 99.69 150.03 98.27 157.96 98.27 157.28 99.69 149.32 99.69"/>
      <polygon class="cls-5" points="140.11 99.69 140.82 98.27 148.75 98.27 148.07 99.69 140.11 99.69"/>
      <polygon class="cls-5" points="130.19 99.69 130.9 98.27 138.83 98.27 138.16 99.69 130.19 99.69"/>
      <polygon class="cls-5" points="121.69 99.69 122.4 98.27 130.33 98.27 129.65 99.69 121.69 99.69"/>
      <polygon class="cls-5" points="112.48 99.69 113.19 98.27 121.12 98.27 120.44 99.69 112.48 99.69"/>
      <rect class="cls-5" x="82.89" y="100.4" width="7.29" height="2.13"/>
      <rect class="cls-5" x="119.53" y="100.29" width="7.29" height="2.13"/>
      <rect class="cls-5" x="110.32" y="100.29" width="7.29" height="2.13"/>
      <rect class="cls-5" x="101.11" y="100.29" width="7.29" height="2.13"/>
      <rect class="cls-5" x="92.61" y="100.29" width="7.29" height="2.13"/>
      <rect class="cls-5" x="64.98" y="100.29" width="7.29" height="2.13"/>
      <rect class="cls-5" x="74.19" y="100.29" width="7.29" height="2.13"/>
      <rect class="cls-5" x="137.24" y="100.29" width="7.29" height="2.13"/>
      <rect class="cls-5" x="128.74" y="100.29" width="7.29" height="2.13"/>
      <rect class="cls-5" x="60.02" y="103.12" width="7.29" height="2.13"/>
      <rect class="cls-5" x="106.07" y="103.12" width="7.29" height="2.13"/>
      <rect class="cls-5" x="37.35" y="100.29" width="7.29" height="2.13"/>
      <rect class="cls-5" x="47.27" y="100.29" width="7.29" height="2.13"/>
      <rect class="cls-5" x="55.77" y="100.29" width="7.29" height="2.13"/>
      <rect class="cls-5" x="69.23" y="103.12" width="7.29" height="2.13"/>
      <rect class="cls-5" x="96.86" y="103.12" width="7.29" height="2.13"/>
      <rect class="cls-5" x="78.44" y="103.12" width="7.29" height="2.13"/>
      <rect class="cls-5" x="87.65" y="103.12" width="7.29" height="2.13"/>
      <rect class="cls-5" x="142.91" y="103.12" width="7.29" height="2.13"/>
      <rect class="cls-5" x="134.41" y="103.12" width="7.29" height="2.13"/>
      <rect class="cls-5" x="124.49" y="103.12" width="7.29" height="2.13"/>
      <rect class="cls-5" x="115.28" y="103.12" width="7.29" height="2.13"/>
      <rect class="cls-5" x="90.48" y="105.96" width="7.29" height="2.13"/>
      <rect class="cls-5" x="80.57" y="105.96" width="7.29" height="2.13"/>
      <rect class="cls-5" x="70.65" y="105.96" width="7.29" height="2.13"/>
      <rect class="cls-5" x="62.14" y="105.96" width="7.29" height="2.13"/>
      <rect class="cls-5" x="52.23" y="105.96" width="7.29" height="2.13"/>
      <rect class="cls-5" x="43.02" y="113.04" width="7.29" height="2.13"/>
      <rect class="cls-5" x="42.31" y="105.96" width="7.29" height="2.13"/>
      <rect class="cls-5" x="40.89" y="103.12" width="7.29" height="2.13"/>
      <rect class="cls-5" x="50.81" y="103.12" width="7.29" height="2.13"/>
      <rect class="cls-5" x="94.74" y="109.5" width="7.29" height="2.13"/>
      <rect class="cls-5" x="104.65" y="109.5" width="7.29" height="2.13"/>
      <rect class="cls-5" x="113.86" y="109.5" width="7.29" height="2.13"/>
      <rect class="cls-5" x="126.62" y="112.33" width="7.29" height="2.13"/>
      <rect class="cls-5" x="123.78" y="109.5" width="7.29" height="2.13"/>
      <rect class="cls-5" x="132.99" y="109.5" width="7.29" height="2.13"/>
      <rect class="cls-5" x="152.12" y="103.12" width="7.29" height="2.13"/>
      <rect class="cls-5" x="137.24" y="105.96" width="7.29" height="2.13"/>
      <rect class="cls-5" x="127.33" y="105.96" width="7.29" height="2.13"/>
      <rect class="cls-5" x="118.12" y="105.96" width="7.29" height="2.13"/>
      <rect class="cls-5" x="108.2" y="105.96" width="7.29" height="2.13"/>
      <rect class="cls-5" x="98.99" y="105.96" width="7.29" height="2.13"/>
      <rect class="cls-5" x="46.56" y="109.5" width="7.29" height="2.13"/>
      <rect class="cls-5" x="56.48" y="109.5" width="7.29" height="2.13"/>
      <rect class="cls-5" x="65.69" y="109.5" width="7.29" height="2.13"/>
      <rect class="cls-5" x="75.61" y="109.5" width="7.29" height="2.13"/>
      <rect class="cls-5" x="84.82" y="109.5" width="7.29" height="2.13"/>
      <polygon class="cls-5" points="123.78 112.44 124.49 115.28 114.56 115.17 113.97 112.44 123.78 112.44"/>
      <polygon class="cls-5" points="145.95 100.4 146.76 102.42 158.65 102.42 157.57 100.4 145.95 100.4"/>
      <polygon class="cls-5" points="145.95 105.96 146.76 108.19 161.34 108.19 160.73 106.06 145.95 105.96"/>
      <polygon class="cls-5" points="142.09 109.47 142.91 111.73 163.05 111.73 162.15 109.02 142.09 109.47"/>
      <polygon class="cls-5" points="53.02 112.33 52.23 115.28 63.06 115.28 63.66 112.44 53.02 112.33"/>
    </g>
  </g>
</svg>