<?xml version="1.0" encoding="UTF-8"?>
<svg id="Layer_2" data-name="Layer 2" xmlns="http://www.w3.org/2000/svg" viewBox="0 0 186.08 239.5">
  <defs>
    <style>
      .cls-1 {
        letter-spacing: 0em;
      }

      .cls-2 {
        fill: #f2f2f2;
      }

      .cls-2, .cls-3, .cls-4, .cls-5, .cls-6, .cls-7 {
        stroke-width: 0px;
      }

      .cls-3 {
        fill: #b3b3b3;
      }

      .cls-4 {
        fill: #666;
      }

      .cls-5 {
        fill: #999;
      }

      .cls-8 {
        letter-spacing: -.02em;
      }

      .cls-9 {
        fill: #333;
        stroke: #000;
        stroke-miterlimit: 10;
      }

      .cls-6 {
        fill: #2bb673;
      }

      .cls-10 {
        fill: #000;
        font-family: Bahnschrift, Bahnschrift;
        font-size: 20.44px;
        font-variation-settings: 'wght' 400, 'wdth' 100;
      }

      .cls-7 {
        fill: #4d4d4d;
      }
    </style>
  </defs>
  <g id="Layer_1-2" data-name="Layer 1">
    <g>
      <polygon class="cls-4" points="40.77 29.52 3.95 29.52 0 32.34 0 234.78 4.22 239 147.48 239 146.21 230.56 141.99 229.16 139.18 229.16 132.15 231.97 127.94 229.16 7.03 229.16 7.03 39.36 40.77 39.36 40.77 29.52"/>
      <polygon class="cls-4" points="117.76 29.52 154.45 29.52 157.46 33.74 157.46 146.95 153.24 143.4 150.43 144.81 150.43 39.36 117.76 39.03 117.76 29.52"/>
      <polygon class="cls-2" points="7.03 39.36 7.03 229.16 127.94 229.16 126.53 226.35 127.94 224.94 119.1 224.94 115.28 212.29 108.25 209.48 97.01 215.1 89.98 206.66 95.6 194.01 91.38 188.39 80.14 184.17 80.14 172.92 92.79 168.37 95.6 161.68 89.64 150.43 97.01 143.4 108.25 149.02 115.35 146.95 119.9 134.26 130.88 134.26 134.63 146.95 140.59 149.02 150.43 144.81 150.43 39.36 117.76 39.03 117.76 45.28 40.77 44.99 40.77 39.36 7.03 39.36"/>
      <polygon class="cls-3" points="40.77 29.52 40.77 39.36 40.77 44.99 117.76 45.28 117.76 39.03 117.76 29.52 115.28 25.31 111.06 22.49 108.25 19.68 104.04 18.28 91.52 18.28 91.38 9.84 88.57 4.22 82.95 0 79.26 0 73.74 0 70.29 2.81 66.08 9.84 66.08 18.28 52.02 18.28 47.8 19.68 43.85 22.64 42.18 25.31 40.77 29.52"/>
      <circle class="cls-2" cx="78.73" cy="9.84" r="5.62"/>
      <rect class="cls-4" x="49.21" y="91.38" width="85.76" height="5.62"/>
      <rect class="cls-7" x="49.21" y="125.12" width="85.76" height="5.62"/>
      <rect class="cls-7" x="49.21" y="160.27" width="85.76" height="5.62"/>
      <rect class="cls-7" x="49.21" y="194.01" width="85.76" height="5.62"/>
      <rect class="cls-4" x="49.21" y="99.82" width="47.8" height="5.62"/>
      <rect class="cls-4" x="49.21" y="133.56" width="47.8" height="5.62"/>
      <rect class="cls-4" x="49.21" y="168.71" width="47.8" height="5.62"/>
      <rect class="cls-4" x="49.21" y="202.45" width="47.8" height="5.62"/>
      <polygon class="cls-9" points="127.94 224.94 119.1 224.94 115.28 212.29 108.25 209.48 97.01 215.1 89.98 206.66 95.6 194.01 91.38 188.39 80.14 184.17 80.14 172.92 92.79 168.37 95.6 161.68 89.64 150.43 97.01 143.4 108.25 149.02 115.35 146.95 119.9 134.26 130.88 134.26 134.63 146.95 140.59 149.02 153.24 143.4 161.68 151.84 156.05 163.08 157.46 168.64 170.11 172.92 170.11 180.96 165.89 184.17 160.27 182.76 156.05 172.92 147.48 172.39 144.81 182.76 140.59 186.98 132.15 181.36 126.53 185.58 130.75 194.01 129.34 198.23 120.91 202.45 120.91 210.88 129.34 213.69 132.15 219.32 127.94 224.94"/>
      <circle class="cls-5" cx="125.12" cy="179.95" r="19.68"/>
      <polygon class="cls-9" points="172.92 231.97 164.49 229.16 159.53 230.56 157.46 239 147.48 239 146.21 230.56 139.18 229.16 132.15 231.97 126.53 226.35 132.15 219.32 129.34 213.69 120.91 210.88 120.91 202.45 129.34 198.23 130.75 194.01 126.53 185.58 132.15 181.36 140.59 186.98 144.81 182.76 147.48 172.39 156.05 172.92 160.27 182.76 165.89 184.17 170.11 180.96 172.92 181.36 178.55 186.98 174.33 194.01 177.14 199.64 185.58 201.04 185.58 210.15 175.74 213.69 174.33 217.91 178.55 226.35 172.92 231.97"/>
      <circle class="cls-5" cx="152.54" cy="205.96" r="13.36"/>
      <rect class="cls-4" x="21.09" y="91.38" width="15.46" height="14.06"/>
      <polygon class="cls-6" points="24.03 97.01 23.2 99.11 30.46 105.44 42.78 94.19 42.78 92.25 40.77 91.38 39.23 91.38 30.93 99.82 29.52 99.82 26.71 97.01 25.31 97.01 24.03 97.01"/>
      <rect class="cls-4" x="21.09" y="126.53" width="15.46" height="14.06"/>
      <polygon class="cls-6" points="23.43 132.15 22.59 134.26 29.86 140.59 42.18 129.34 42.18 127.4 40.17 126.53 38.63 126.53 30.33 134.96 28.92 134.96 26.11 132.15 24.7 132.15 23.43 132.15"/>
      <rect class="cls-4" x="21.09" y="160.27" width="15.46" height="14.06"/>
      <polygon class="cls-6" points="23.43 165.89 22.59 168 29.86 174.33 42.18 163.08 42.18 161.14 40.17 160.27 38.63 160.27 30.33 168.71 28.92 168.71 26.11 165.89 24.7 165.89 23.43 165.89"/>
      <rect class="cls-4" x="21.09" y="195.42" width="15.46" height="14.06"/>
      <text class="cls-10" transform="translate(37.42 72.14)"><tspan class="cls-1" x="0" y="0">P</tspan><tspan class="cls-8" x="12.53" y="0">RO</tspan><tspan x="38.25" y="0">JECT</tspan></text>
    </g>
  </g>
</svg>